<svg width="428" height="303" viewBox="0 0 428 303" fill="none" xmlns="http://www.w3.org/2000/svg">
<g clip-path="url(#clip0_2_2)">
<path opacity="0.1" d="M142.292 302.83C163.136 302.83 180.032 300.117 180.032 296.772C180.032 293.426 163.136 290.713 142.292 290.713C121.449 290.713 104.552 293.426 104.552 296.772C104.552 300.117 121.449 302.83 142.292 302.83Z" fill="#6C63FF"/>
<path opacity="0.1" d="M347.442 303C373.451 303 394.536 300.288 394.536 296.942C394.536 293.596 373.451 290.884 347.442 290.884C321.433 290.884 300.348 293.596 300.348 296.942C300.348 300.288 321.433 303 347.442 303Z" fill="#6C63FF"/>
<path opacity="0.1" d="M5.36043 130.918H44.6692V184.466H8.23819C8.14136 185.015 8.0484 185.569 7.9477 186.122H44.6692V229.307C44.6033 229.288 44.5452 229.265 44.4832 229.242C43.4452 228.831 42.415 228.398 41.3847 227.933L40.7263 227.635C39.6934 227.147 38.6606 226.631 37.6277 226.087C37.2675 225.897 36.9073 225.7 36.551 225.498C30.8171 222.288 25.6082 218.22 21.1048 213.436C20.9731 213.309 20.8492 213.173 20.7175 213.049C20.0901 212.368 19.4742 211.679 18.8778 210.974L18.2193 210.2C17.5144 209.337 16.8327 208.45 16.1704 207.552C16.0736 207.421 15.9806 207.289 15.8799 207.165C13.1863 203.433 10.9498 199.391 9.2181 195.126C9.16387 194.999 9.1174 194.859 9.06705 194.739C8.53513 193.372 8.0639 191.991 7.65334 190.597C7.47517 190.013 7.30476 189.436 7.15758 188.828C7.10335 188.65 7.05687 188.476 7.01427 188.302C4.81431 179.72 4.55481 170.805 4.55481 161.952C4.55481 160.918 4.55481 159.881 4.55481 158.855C4.55481 155.274 4.59741 151.67 4.65939 148.07C4.65939 147.137 4.69812 146.208 4.71748 145.272C4.77171 142.895 4.84917 140.518 4.94987 138.141C4.97311 137.479 5.0041 136.821 5.03895 136.163C5.03895 135.784 5.05832 135.404 5.09705 135.025C5.19001 133.647 5.26747 132.28 5.36043 130.918Z" fill="#6C63FF"/>
<path opacity="0.1" d="M44.6692 71.2964H23.1073C26.6123 65.8134 30.4419 60.5446 34.5757 55.5181C37.7788 51.5852 41.1601 47.7529 44.6692 44.0599V71.2964Z" fill="#6C63FF"/>
<path opacity="0.1" d="M44.6692 72.9532V129.261H5.48438C5.48438 129.098 5.51149 128.932 5.52311 128.769C5.55796 128.324 5.59282 127.879 5.63155 127.438C5.67416 126.919 5.72064 126.396 5.77099 125.889C5.82134 125.382 5.87556 124.763 5.93366 124.202C5.99176 123.64 6.04598 123.071 6.11183 122.51C6.17767 121.949 6.23577 121.387 6.30549 120.83C6.3752 120.272 6.43717 119.707 6.51076 119.15C6.56886 118.685 6.63083 118.225 6.6928 117.76C6.78188 117.106 6.87484 116.448 6.97554 115.798C6.97554 115.701 7.00265 115.6 7.01815 115.507C7.72507 110.747 8.6883 106.027 9.90365 101.37C11.1758 96.485 12.8004 91.6983 14.7645 87.0476C16.852 82.1824 19.2961 77.4779 22.077 72.9725L44.6692 72.9532Z" fill="#6C63FF"/>
<path opacity="0.1" d="M54.0539 130.914V184.466H138.012V130.914H54.0539ZM54.0539 186.118V232.106C54.5341 232.207 55.0105 232.304 55.4831 232.385C56.126 232.509 56.7651 232.621 57.4196 232.718C57.5436 232.737 57.6714 232.756 57.807 232.768C58.0626 232.811 58.326 232.846 58.5816 232.88C59.2284 232.969 59.8714 233.043 60.5182 233.101C60.8242 233.132 61.134 233.159 61.4439 233.182L62.1914 233.24C62.5981 233.271 63.0009 233.295 63.3998 233.306C63.6477 233.306 63.8956 233.329 64.1512 233.337C64.3449 233.337 64.5385 233.337 64.7399 233.337C64.9413 233.337 65.2279 233.337 65.4719 233.337C65.805 233.337 66.1381 233.337 66.4674 233.337H66.9128C67.2459 233.337 67.5789 233.337 67.9082 233.306H67.9314C68.1599 233.306 68.3923 233.306 68.6247 233.275C68.6892 233.279 68.7539 233.279 68.8184 233.275C69.012 233.275 69.2057 233.275 69.3916 233.248H69.5271L70.8247 233.147C71.2507 233.109 71.6806 233.058 72.1144 233.012L72.9975 232.907C76.5902 232.404 80.1429 231.649 83.6293 230.647C91.4609 228.464 99.122 225.409 106.95 223.172C117.07 220.288 128.252 218.871 138.032 222.398V186.118H54.0539ZM138.012 71.2964V0.00387012C128.82 -0.0956629 119.653 0.978855 110.734 3.20133C89.4739 8.53946 70.3986 20.1177 54.0539 34.905V71.2925H58.2679V72.9454H54.0539V129.261H138.012V72.9493H75.5693V71.2964H138.012ZM245.853 47.2148C240.593 47.029 235.364 45.3644 230.635 42.7941C221.591 37.8779 214.368 30.2868 206.296 23.8803C189.525 10.5369 168.727 2.48519 147.389 0.487747V71.2964H267.244L267.543 70.9828L245.853 47.2148ZM256.771 45.2793L268.348 57.9762V41.9502C264.471 42.4302 261.074 43.5722 256.787 45.2638L256.771 45.2793ZM268.348 243.526V186.118H243.68C243.614 185.875 243.548 185.627 243.471 185.379C243.544 185.627 243.606 185.875 243.676 186.118H147.405V227.635C148.319 228.313 149.221 229.025 150.116 229.749C151.08 230.523 152.033 231.34 152.99 232.141L153.954 232.938C154.415 233.326 154.88 233.713 155.349 234.077C156.278 234.83 157.217 235.573 158.164 236.306C158.633 236.693 159.113 237.042 159.59 237.406C167.153 243.185 175.131 248.4 183.46 253.01C185.327 254.042 187.211 255.05 189.111 256.033C190.378 256.679 191.652 257.322 192.93 257.945C194.851 258.882 196.788 259.785 198.74 260.655C216.737 268.729 235.768 274.27 255.288 277.118C259.623 277.758 263.975 278.262 268.344 278.628V243.522H268.732L268.348 243.526ZM147.405 72.9493V129.261H268.364V72.9493H147.405ZM147.405 130.914V184.466H268.364V130.914H147.405ZM277.752 41.8805V59.7569L292.528 43.5528C287.633 42.7631 282.707 42.1992 277.752 41.8612V41.8805ZM277.752 130.933V184.466H395.4V130.914L277.752 130.933ZM394.97 247.776L395.384 186.118H277.752V279.244C285.33 279.562 292.92 279.471 300.488 278.973V278.973H300.619C304.234 278.745 307.833 278.415 311.414 277.982H311.495C330.602 275.759 349.284 270.777 366.959 263.19M418.085 139.732C417.643 138.691 417.182 137.657 416.714 136.635C415.838 134.7 414.913 132.818 413.96 130.937H404.78V184.466H427.988C427.977 169.307 424.138 153.823 418.096 139.713L418.085 139.732ZM381.665 294.182V347.215C388.203 340.951 393.726 333.786 397.704 325.595C402.487 315.732 404.676 305.052 404.854 294.174L381.665 294.182ZM381.665 223.373V237.309H389.985C400.874 219.148 407.82 198.901 410.371 177.883C412.922 156.865 411.021 135.546 404.792 115.31L381.665 223.373ZM301.878 160.43C301.266 160.198 300.654 159.962 300.038 159.734C293.543 157.336 286.906 155.343 280.165 153.765L257.554 178.566L280.235 70.9828L280.525 71.3003H361.002C349.794 63.5894 337.71 57.234 325.005 52.3671L301.878 160.43ZM340.246 181.013H279.402L277.752 182.522V129.261H292.215H292.238H395.415V102.725C386.082 91.4434 375.309 81.4329 363.372 72.9493L340.246 181.013Z" fill="#6C63FF"/>
<path opacity="0.1" d="M44.6692 101.355V129.261H5.48438C5.48438 129.098 5.51149 128.932 5.52311 128.769C5.55796 128.324 5.59282 127.879 5.63155 127.438C5.67416 126.919 5.72064 126.396 5.77099 125.889C5.82134 125.382 5.87556 124.763 5.93366 124.202C5.99176 123.64 6.04598 123.071 6.11183 122.51C6.17767 121.949 6.23577 121.387 6.30549 120.83C6.3752 120.272 6.43717 119.707 6.51076 119.15C6.56886 118.685 6.63083 118.225 6.6928 117.76C6.78188 117.106 6.87484 116.448 6.97554 115.798C6.97554 115.701 7.00265 115.6 7.01815 115.507C7.72507 110.747 8.6883 106.027 9.90365 101.37L44.6692 101.355Z" fill="#6C63FF"/>
<path opacity="0.1" d="M5.36043 130.918H44.6692V184.466H8.23819C8.14136 185.015 8.0484 185.569 7.9477 186.122H44.6692V229.307C44.6033 229.288 44.5452 229.265 44.4832 229.242C43.4452 228.831 42.415 228.398 41.3847 227.933L40.7263 227.635C39.6934 227.147 38.6606 226.631 37.6277 226.087C37.2675 225.897 36.9073 225.7 36.551 225.498C30.8171 222.288 25.6082 218.22 21.1048 213.436C20.9731 213.309 20.8492 213.173 20.7175 213.049C20.0901 212.368 19.4742 211.679 18.8778 210.974L18.2193 210.2C17.5144 209.337 16.8327 208.45 16.1704 207.552C16.0736 207.421 15.9806 207.289 15.8799 207.165C13.1863 203.433 10.9498 199.391 9.2181 195.126C9.16387 194.999 9.1174 194.859 9.06705 194.739C8.53513 193.372 8.0639 191.991 7.65334 190.597C7.47517 190.013 7.30476 189.436 7.15758 188.828C7.10335 188.65 7.05687 188.476 7.01427 188.302C4.81431 179.72 4.55481 170.805 4.55481 161.952C4.55481 160.918 4.55481 159.881 4.55481 158.855C4.55481 155.274 4.59741 151.67 4.65939 148.07C4.65939 147.137 4.69812 146.208 4.71748 145.272C4.77171 142.895 4.84917 140.518 4.94987 138.141C4.97311 137.479 5.0041 136.821 5.03895 136.163C5.03895 135.784 5.05832 135.404 5.09705 135.025C5.19001 133.647 5.26747 132.28 5.36043 130.918Z" fill="#6C63FF"/>
<path opacity="0.1" d="M83.61 81.0126V129.261H54.0539V81.0126H58.2679V64.677H75.5654V81.0126H83.61Z" fill="#6C63FF"/>
<path opacity="0.1" d="M83.61 130.914H54.0577V184.462H83.61V130.914Z" fill="#6C63FF"/>
<path opacity="0.1" d="M54.0539 186.122H83.61V230.639C80.1235 231.64 76.5708 232.394 72.9781 232.896L72.0951 233.004C71.6613 233.055 71.2313 233.097 70.8053 233.14C70.3792 233.182 69.9377 233.213 69.5078 233.24H69.3722C69.1863 233.24 68.9849 233.264 68.8029 233.267H68.6053C68.3729 233.267 68.1406 233.291 67.9082 233.298C67.5789 233.318 67.2497 233.322 66.9128 233.326C66.7695 233.326 66.6339 233.326 66.4906 233.326C66.1575 233.326 65.8283 233.326 65.4952 233.326H64.7632C64.5656 233.326 64.3758 233.326 64.1706 233.326L63.423 233.298C63.0357 233.298 62.6174 233.256 62.2146 233.229L61.471 233.175L60.5453 233.089C59.8946 233.031 59.2478 232.958 58.6087 232.869L57.8341 232.76L57.4468 232.706C56.7999 232.606 56.1609 232.497 55.5102 232.373C55.0338 232.292 54.5612 232.191 54.081 232.095L54.0539 186.122Z" fill="#6C63FF"/>
<path opacity="0.1" d="M268.364 75.3145H243.994V129.257H268.364V75.3145Z" fill="#6C63FF"/>
<path opacity="0.1" d="M268.368 130.914V184.466H147.405V161.367H211.835V174.993H243.994V130.914H268.368Z" fill="#6C63FF"/>
<path opacity="0.1" d="M268.751 243.537H268.364V278.667C264 278.298 259.649 277.796 255.311 277.161C235.781 274.303 216.743 268.751 198.74 260.663C193.542 258.325 188.45 255.772 183.464 253.006C175.135 248.394 167.156 243.179 159.59 237.402C157.689 235.946 155.813 234.457 153.962 232.935C152.68 231.878 151.406 230.794 150.116 229.741C149.221 229.017 148.319 228.305 147.405 227.624V186.122H243.672C243.606 185.875 243.541 185.627 243.471 185.383C243.544 185.627 243.614 185.875 243.68 186.122H268.364V243.514C268.495 243.518 268.623 243.53 268.751 243.537Z" fill="#6C63FF"/>
<path opacity="0.1" d="M331.922 71.2964H316.042V66.3647H323.161V51.6742C323.778 51.8987 324.393 52.1297 325.005 52.3671V66.3647H331.922V71.2964Z" fill="#6C63FF"/>
<path opacity="0.1" d="M370.181 129.261H292.222C292.222 129.261 292.222 129.261 292.25 129.28L292.215 129.261H277.752V75.3184H281.85V115.19H300.577V91.5767H316.046V72.9532H331.926V91.5921H347.396V115.205H370.181V129.261Z" fill="#6C63FF"/>
<path opacity="0.1" d="M277.752 130.914V184.466H370.181V130.914H277.752ZM395.272 247.501L395.4 205.114H370.181V186.146H277.752V279.244C285.33 279.562 292.92 279.471 300.488 278.973V278.973H300.619C304.234 278.745 307.833 278.415 311.414 277.982H311.495C330.602 275.759 349.284 270.777 366.959 263.19" fill="#6C63FF"/>
<path opacity="0.1" d="M406.423 186.122H427.984C427.795 196.996 425.61 207.676 420.831 217.54C416.853 225.734 411.326 232.9 404.796 239.159V205.094H406.423V186.122Z" fill="#6C63FF"/>
<path opacity="0.1" d="M427.996 184.466H406.423V139.713H418.096C424.138 153.823 427.977 169.307 427.996 184.466Z" fill="#6C63FF"/>
<path opacity="0.1" d="M268.368 90.3108H255.311V107.223H268.368V90.3108Z" fill="#6C63FF"/>
<path opacity="0.1" d="M268.368 125.367H255.311V129.261H268.368V125.367Z" fill="#6C63FF"/>
<path opacity="0.1" d="M268.368 130.914H255.311V142.275H268.368V130.914Z" fill="#6C63FF"/>
<path opacity="0.1" d="M268.368 160.423H255.311V177.335H268.368V160.423Z" fill="#6C63FF"/>
<path opacity="0.1" d="M268.368 195.479H255.311V212.391H268.368V195.479Z" fill="#6C63FF"/>
<path opacity="0.1" d="M268.364 243.514C268.495 243.514 268.623 243.514 268.751 243.537H268.364V247.466H255.311V230.535H268.364V243.514Z" fill="#6C63FF"/>
<path opacity="0.1" d="M268.364 265.583V278.647C264 278.278 259.649 277.776 255.311 277.142V265.583H268.364Z" fill="#6C63FF"/>
<path opacity="0.1" d="M203.36 183.223H147.405V184.466H203.36V183.223Z" fill="#6C63FF"/>
<path opacity="0.1" d="M203.36 186.119H147.405V190.88H203.36V186.119Z" fill="#6C63FF"/>
<path opacity="0.1" d="M203.36 206.488H147.405V214.145H203.36V206.488Z" fill="#6C63FF"/>
<path opacity="0.1" d="M203.357 229.753V237.409H159.59C157.689 235.959 155.812 234.47 153.958 232.942C152.676 231.886 151.406 230.802 150.112 229.753H203.357Z" fill="#6C63FF"/>
<path opacity="0.1" d="M203.357 253.014V260.663H198.736C193.543 258.322 188.453 255.768 183.464 253.002L203.357 253.014Z" fill="#6C63FF"/>
<path opacity="0.1" d="M311.507 136.105H300.492V147.114H311.507V136.105Z" fill="#6C63FF"/>
<path opacity="0.1" d="M73.0052 84.8101H61.99V95.8193H73.0052V84.8101Z" fill="#6C63FF"/>
<path opacity="0.1" d="M73.0052 110.382H61.99V121.391H73.0052V110.382Z" fill="#6C63FF"/>
<path opacity="0.1" d="M73.0052 135.954H61.99V146.963H73.0052V135.954Z" fill="#6C63FF"/>
<path opacity="0.1" d="M73.0052 161.522H61.99V172.531H73.0052V161.522Z" fill="#6C63FF"/>
<path opacity="0.1" d="M73.0052 187.094H61.99V198.103H73.0052V187.094Z" fill="#6C63FF"/>
<path opacity="0.1" d="M73.0052 212.666H61.99V223.675H73.0052V212.666Z" fill="#6C63FF"/>
<path opacity="0.1" d="M353.558 136.105H342.543V147.114H353.558V136.105Z" fill="#6C63FF"/>
<path opacity="0.1" d="M311.507 163.26H300.492V174.269H311.507V163.26Z" fill="#6C63FF"/>
<path opacity="0.1" d="M353.558 163.26H342.543V174.269H353.558V163.26Z" fill="#6C63FF"/>
<path opacity="0.1" d="M311.507 190.411H300.492V201.421H311.507V190.411Z" fill="#6C63FF"/>
<path opacity="0.1" d="M353.558 190.411H342.543V201.421H353.558V190.411Z" fill="#6C63FF"/>
<path opacity="0.1" d="M311.507 217.567H300.492V228.576H311.507V217.567Z" fill="#6C63FF"/>
<path opacity="0.1" d="M353.558 217.567H342.543V228.576H353.558V217.567Z" fill="#6C63FF"/>
<path opacity="0.1" d="M311.507 244.722H300.492V255.731H311.507V244.722Z" fill="#6C63FF"/>
<path opacity="0.1" d="M353.558 244.722H342.543V255.731H353.558V244.722Z" fill="#6C63FF"/>
<path opacity="0.1" d="M300.492 278.973V271.873H311.503V277.962L300.492 278.973Z" fill="#6C63FF"/>
<path opacity="0.1" d="M6.97168 115.5V121.798H44.6692V115.5H6.97168ZM10.7286 121.403H7.65336V115.887H10.7519L10.7286 121.403ZM14.4817 121.403H11.3832V115.887H14.4817V121.403ZM18.2271 121.403H15.1286V115.887H18.2271V121.403ZM21.9802 121.403H18.8855V115.887H21.9841L21.9802 121.403ZM25.7294 121.403H22.6309V115.887H25.7294V121.403ZM29.4825 121.403H26.384V115.887H29.4825V121.403ZM33.2356 121.403H30.1371V115.887H33.2356V121.403ZM36.9848 121.403H33.8863V115.887H36.9848V121.403ZM40.734 121.403H37.6355V115.887H40.734V121.403ZM44.4833 121.403H41.3847V115.887H44.4833V121.403Z" fill="#6C63FF"/>
<path opacity="0.1" d="M6.97168 133.825V140.123H44.6692V133.825H6.97168ZM10.7286 139.724H7.65336V134.224H10.7519L10.7286 139.724ZM14.4817 139.724H11.3832V134.224H14.4817V139.724ZM18.2271 139.724H15.1286V134.224H18.2271V139.724ZM21.9802 139.724H18.8855V134.224H21.9841L21.9802 139.724ZM25.7294 139.724H22.6309V134.224H25.7294V139.724ZM29.4825 139.724H26.384V134.224H29.4825V139.724ZM33.2356 139.724H30.1371V134.224H33.2356V139.724ZM36.9848 139.724H33.8863V134.224H36.9848V139.724ZM40.734 139.724H37.6355V134.224H40.734V139.724ZM44.4833 139.724H41.3847V134.224H44.4833V139.724Z" fill="#6C63FF"/>
<path opacity="0.1" d="M6.97168 152.158V158.468H44.6692V152.158H6.97168ZM10.7286 158.058H7.65336V152.553H10.7519L10.7286 158.058ZM14.4817 158.058H11.3832V152.553H14.4817V158.058ZM18.2271 158.058H15.1286V152.553H18.2271V158.058ZM21.9802 158.058H18.8855V152.553H21.9841L21.9802 158.058ZM25.7294 158.058H22.6309V152.553H25.7294V158.058ZM29.4825 158.058H26.384V152.553H29.4825V158.058ZM33.2356 158.058H30.1371V152.553H33.2356V158.058ZM36.9848 158.058H33.8863V152.553H36.9848V158.058ZM40.734 158.058H37.6355V152.553H40.734V158.058ZM44.4833 158.058H41.3847V152.553H44.4833V158.058Z" fill="#6C63FF"/>
<path opacity="0.1" d="M6.97168 170.491V176.782H44.6692V170.491H6.97168ZM10.7286 176.391H7.65336V170.882H10.7519L10.7286 176.391ZM14.4817 176.391H11.3832V170.882H14.4817V176.391ZM18.2271 176.391H15.1286V170.882H18.2271V176.391ZM21.9802 176.391H18.8855V170.882H21.9841L21.9802 176.391ZM25.7294 176.391H22.6309V170.882H25.7294V176.391ZM29.4825 176.391H26.384V170.882H29.4825V176.391ZM33.2356 176.391H30.1371V170.882H33.2356V176.391ZM36.9848 176.391H33.8863V170.882H36.9848V176.391ZM40.734 176.391H37.6355V170.882H40.734V176.391ZM44.4833 176.391H41.3847V170.882H44.4833V176.391Z" fill="#6C63FF"/>
<path opacity="0.1" d="M7.13434 188.82C7.28539 189.413 7.45581 190.005 7.63397 190.59V189.215H10.7325V194.72H9.07479C9.12514 194.848 9.17549 194.987 9.22584 195.107H44.6692V188.82H7.13434ZM14.4933 194.72H11.3948V189.215H14.4933V194.72ZM18.2387 194.72H15.1402V189.215H18.2387V194.72ZM21.9918 194.72H18.8855V189.215H21.984L21.9918 194.72ZM25.741 194.72H22.6425V189.215H25.741V194.72ZM29.4941 194.72H26.3956V189.215H29.4941V194.72ZM33.2472 194.72H30.1487V189.215H33.2472V194.72ZM36.9964 194.72H33.8979V189.215H36.9964V194.72ZM40.7456 194.72H37.6471V189.215H40.7456V194.72ZM44.4949 194.72H41.3963V189.215H44.4949V194.72Z" fill="#6C63FF"/>
<path opacity="0.1" d="M15.8877 207.154C15.9845 207.277 16.0775 207.417 16.1782 207.541H18.2271V210.185C18.4479 210.448 18.6648 210.711 18.8894 210.959V207.525H21.9879V213.049H20.733C20.857 213.177 20.977 213.312 21.1203 213.436H44.6808V207.154H15.8877ZM25.7294 213.049H22.6309V207.548H25.7294V213.049ZM29.4825 213.049H26.384V207.548H29.4825V213.049ZM33.2356 213.049H30.1371V207.548H33.2356V213.049ZM36.9848 213.049H33.8863V207.548H36.9848V213.049ZM40.734 213.049H37.6355V207.548H40.734V213.049ZM44.4833 213.049H41.3847V207.548H44.4833V213.049Z" fill="#6C63FF"/>
<path opacity="0.1" d="M36.5665 225.483C36.919 225.684 37.2792 225.87 37.6433 226.071V225.878H40.7418V227.62L41.4002 227.925V225.878H44.4988V229.226C44.5582 229.256 44.6205 229.279 44.6847 229.296V225.483H36.5665Z" fill="#6C63FF"/>
<path opacity="0.1" d="M292.222 129.261H292.246H292.222ZM268.364 243.51H268.751H268.364ZM243.471 185.379C243.544 185.627 243.606 185.875 243.676 186.119C243.614 185.875 243.548 185.627 243.471 185.379ZM292.222 129.249H292.246H292.222ZM58.2834 71.2848V72.9377H75.5848V71.2848H58.2834ZM268.364 243.51H268.751H268.364ZM243.471 185.379C243.544 185.627 243.606 185.875 243.676 186.119C243.614 185.875 243.548 185.627 243.471 185.379ZM292.222 129.249H292.246H292.222ZM268.364 243.499H268.751H268.364ZM243.471 185.379C243.544 185.627 243.606 185.875 243.676 186.119C243.614 185.875 243.548 185.627 243.471 185.379Z" fill="#6C63FF"/>
<path d="M178.785 146.971C178.785 146.971 177.259 146.758 177.259 144.536C177.259 142.314 176.167 138.164 176.167 138.164C176.167 138.145 175.222 130.937 173.917 129.791C172.611 128.646 170.934 121.918 170.934 121.918C170.934 121.918 170.648 118.267 170.063 117.481C169.478 116.696 168.688 114.772 167.522 112.027C166.356 109.283 161.495 107.382 161.495 107.382C161.495 107.382 152.707 102.288 150.217 100.627C149.99 100.491 149.779 100.331 149.585 100.151C149.152 99.5819 147.262 99.5703 147.262 99.5703C147.064 98.3238 146.874 96.8916 146.812 95.5948C146.812 95.4554 146.812 95.3161 146.793 95.1767C149.57 93.5361 151.662 90.9494 152.684 87.8914C152.73 87.7443 152.769 87.5895 152.812 87.4424C152.978 87.3876 153.131 87.2987 153.261 87.1814C153.391 87.0641 153.495 86.9209 153.567 86.7611C153.792 86.2617 153.796 85.6772 154.074 85.2127C154.4 84.663 155.019 84.3688 155.507 83.9546C156.739 82.9094 157.057 81.1481 156.999 79.5455C156.96 78.2487 156.751 76.9403 156.832 75.6513L156.855 75.3261C156.879 75.1326 156.906 74.939 156.941 74.7532C157.13 73.7932 157.545 72.8874 157.777 71.9351C158.01 70.9828 158.033 69.9106 157.491 69.0899C156.697 67.886 155.043 67.646 153.59 67.5221C151.944 67.3828 150.472 67.5647 149.419 66.1983C148.926 65.4841 148.371 64.8144 147.761 64.1969C147.544 63.9957 145.437 62.7105 145.437 62.6253C143.381 61.6734 141.05 61.4947 138.872 62.1221C137.78 62.4395 136.75 62.9582 135.642 63.2176C133.252 63.7827 130.502 63.1711 128.473 64.5376C127.342 65.3118 126.664 66.5428 126.029 67.7428C125.512 68.7312 124.988 69.7183 124.456 70.7041C123.6 72.3261 122.729 73.9751 122.369 75.7713C122.293 76.1621 122.246 76.5581 122.229 76.9558V76.9752C122.229 77.1184 122.229 77.2616 122.229 77.4049V77.5868C122.229 77.7223 122.229 77.8539 122.252 77.9739C122.276 78.0939 122.272 78.1326 122.283 78.2139C122.295 78.2952 122.314 78.4771 122.338 78.601C122.361 78.7249 122.407 78.9417 122.454 79.112C122.473 79.1855 122.5 79.2552 122.524 79.3249C122.562 79.4565 122.609 79.5842 122.659 79.712C122.686 79.7778 122.713 79.8475 122.744 79.9133C122.802 80.0488 122.872 80.1804 122.942 80.3004C122.973 80.3546 122.996 80.4049 123.027 80.4552C123.135 80.6352 123.254 80.8085 123.383 80.9739C124.212 82.0075 125.432 82.6656 126.335 83.6333C126.335 83.672 126.335 83.7107 126.335 83.7456C126.335 83.854 126.335 83.9585 126.335 84.0669C126.383 86.2252 126.957 88.3391 128.009 90.2247C129.061 92.1104 130.558 93.7107 132.369 94.8864C132.369 95.0335 132.389 95.1844 132.396 95.3315C132.472 96.4806 132.458 97.6338 132.354 98.7806C132.196 98.595 131.999 98.4471 131.776 98.3479C131.553 98.2488 131.311 98.2008 131.068 98.2077C130.901 98.1996 130.735 98.2139 130.572 98.2503L130.537 98.2232V98.258C129.685 98.4671 128.635 99.3535 127.632 101.874C127.632 101.874 124.58 105.311 122.256 105.168C119.932 105.025 114.049 108.745 114.049 108.745C114.049 108.745 108.309 112.469 107.077 116.262C106.389 118.413 105.564 120.518 104.606 122.564L97.5107 137.177L96.2016 148.771C96.2016 148.771 96.9259 153.927 96.7826 154.713C96.6393 155.499 99.761 162.587 99.761 162.587C99.761 162.587 110.075 180.699 114.289 181.628L114.591 181.415C114.772 181.509 114.963 181.581 115.161 181.628L116.028 181.016C116.08 181.698 116.058 182.383 115.962 183.06C115.382 184.849 116.179 196.52 117.194 198.808C118.209 201.095 117.849 231.092 117.849 231.092L117.705 233.74C117.705 233.74 117.705 233.825 117.74 233.972L117.705 234.599L117.81 234.653C117.919 235.493 117.883 236.345 117.705 237.173C117.341 238.335 117.194 241.617 117.194 241.617C117.194 241.617 114.293 260.152 115.668 263.876C117.043 267.6 118.213 271.68 118.213 271.68C118.213 271.68 119.665 276.325 118.283 277.118C116.9 277.912 112.969 279.244 113.778 281.179C114.514 282.967 117.306 287.76 117.721 288.46L117.686 288.828L117.117 294.995C117.209 295.809 117.43 296.603 117.771 297.348C118.395 298.692 119.607 300.085 121.912 299.934C122.299 299.907 122.748 299.861 123.182 299.803C127.4 299.237 132.594 297.356 132.594 297.356C132.324 297.185 132.077 296.981 131.858 296.748V296.748C131.651 296.548 131.486 296.307 131.375 296.041C131.264 295.774 131.208 295.488 131.211 295.2C131.273 294.077 129.17 288.728 128.647 287.411C128.566 287.222 128.523 287.113 128.523 287.113C128.523 287.113 133.318 282.104 132.52 277.664C132.52 277.664 127.214 274.567 128.961 272.868C130.708 271.169 133.829 266.287 133.829 266.287C133.829 266.287 133.973 248.035 133.829 245.31C133.68 243.419 133.77 241.516 134.097 239.647C134.155 239.364 134.224 239.089 134.298 238.819C136.714 239.179 139.153 239.364 141.595 239.372C142.486 239.372 143.392 239.372 144.306 239.318C144.306 239.576 144.318 239.855 144.341 240.154C144.543 244.675 144.918 252.603 145.224 255.549C145.658 259.772 148.056 271.153 148.056 271.153C148.056 271.153 143.481 274.087 148.853 281.318C148.853 281.318 148.853 283.939 148.497 284.318C148.117 285.559 147.81 286.82 147.579 288.097C147.354 289.459 147.262 290.837 147.626 291.553C148.497 293.264 153.726 293.125 153.726 293.125L153.854 293.102C154.841 293 155.838 293.095 156.788 293.381C157.739 293.668 158.622 294.14 159.388 294.77C161.375 296.365 168.916 295.664 172.999 295.157C174.598 294.956 175.667 294.77 175.667 294.77C175.719 294.589 175.737 294.4 175.722 294.213C175.679 293.21 174.893 291.011 169.563 289.049C169.563 289.049 164.551 285.681 164.621 282.747H164.516H163.935C164.358 282.724 164.629 282.747 164.629 282.747C164.629 282.747 162.665 275.585 163.467 275.005C164.269 274.424 161.867 266.489 161.867 266.489C161.867 266.489 160.492 253.172 160.419 252.239C160.422 251.439 160.543 250.643 160.779 249.878L160.419 242.577C160.419 242.577 160.349 240.15 160.419 239.36C160.407 238.675 160.351 237.991 160.252 237.313C160.217 237.042 160.182 236.759 160.144 236.48C162.022 236.004 163.242 235.563 163.242 235.563L163.025 210.15C164.621 207.053 164.915 200.259 164.908 195.44C164.908 192.343 164.768 190.051 164.768 190.051L166.949 186.494C166.949 186.494 167.452 182.236 166.654 181.303C166.302 180.881 166.461 180.444 166.751 180.084C166.902 179.964 167.061 179.855 167.228 179.758C167.228 179.758 167.204 179.724 167.177 179.673C167.33 179.546 167.491 179.431 167.661 179.329C167.661 179.329 166.887 178.129 167.58 177.622C168.231 178.063 168.812 178.396 169.253 178.667C169.222 178.949 169.191 179.112 169.191 179.112L169.377 178.725C169.803 178.965 170.063 179.112 170.063 179.112C170.063 179.112 173.479 172.311 173.405 171.308C173.332 170.305 175.729 166.082 175.729 166.082C175.729 166.082 176.02 163.864 177.329 162.935C178.638 162.006 178.344 155.274 178.344 155.274C178.344 155.274 178.708 151.767 179.579 150.335C180.451 148.903 178.785 146.971 178.785 146.971ZM113.422 143.986L113.488 145.608C113.1 144.985 112.821 144.536 112.821 144.536L113.422 143.986Z" fill="url(#paint0_linear_2_2)"/>
<path d="M170.249 176.174L169.412 179.735C169.412 179.735 162.712 176.317 161.503 171.974C160.295 167.631 163.525 165.981 163.525 165.981L169.768 168.625L170.249 176.174Z" fill="white"/>
<path opacity="0.1" d="M170.249 176.174L169.412 179.735C169.412 179.735 162.712 176.317 161.503 171.974C160.295 167.631 163.525 165.981 163.525 165.981L169.768 168.625L170.249 176.174Z" fill="black"/>
<path d="M132.644 297.379C132.644 297.379 126.447 299.655 122.187 299.942C119.925 300.093 118.736 298.707 118.124 297.372C117.789 296.629 117.574 295.839 117.485 295.03L118.039 288.894L118.333 285.627L127.384 283.277L128.666 287.195L128.787 287.493C129.302 288.801 131.366 294.124 131.304 295.235C131.302 295.519 131.357 295.801 131.466 296.064C131.575 296.327 131.736 296.565 131.939 296.764C132.147 296.998 132.384 297.205 132.644 297.379V297.379Z" fill="white"/>
<path d="M174.974 294.259C174.99 294.446 174.971 294.633 174.92 294.813C174.92 294.813 161.666 297.023 158.955 294.813C158.19 294.167 157.299 293.688 156.339 293.407C155.378 293.126 154.369 293.048 153.377 293.179C153.377 293.179 148.249 293.319 147.393 291.631C147.037 290.922 147.13 289.548 147.351 288.193C147.576 286.924 147.876 285.669 148.249 284.435L148.454 284.272L149.675 283.293L163.959 282.871H164.067C163.997 285.789 168.916 289.138 168.916 289.138C174.141 291.073 174.912 293.261 174.974 294.259Z" fill="white"/>
<path opacity="0.1" d="M174.974 294.259C174.988 294.446 174.968 294.633 174.916 294.813C174.916 294.813 161.666 297.023 158.955 294.813C158.191 294.168 157.3 293.689 156.34 293.408C155.381 293.126 154.373 293.049 153.381 293.179C153.381 293.179 148.249 293.319 147.397 291.631C147.041 290.919 147.13 289.548 147.351 288.193C149.326 288.391 152.444 288.882 153.668 290.055C155.519 291.84 158.656 293.621 160.581 293.76C162.088 293.857 171.101 294.143 174.974 294.259Z" fill="black"/>
<path opacity="0.1" d="M132.644 297.379C132.644 297.379 126.447 299.655 122.187 299.942C119.925 300.093 118.736 298.707 118.128 297.368C119.704 297.898 121.892 298.455 123.043 297.944C124.406 297.341 129.24 296.95 131.951 296.783C132.157 297.009 132.39 297.209 132.644 297.379V297.379Z" fill="black"/>
<path d="M141.839 113.951C136.727 111.965 130.15 105.404 131.792 102.338C132.157 101.564 132.374 100.729 132.431 99.8761C132.537 98.7178 132.552 97.553 132.478 96.3922C132.363 94.4912 132.134 92.5987 131.792 90.725C131.792 90.725 147.753 91.085 146.824 93.4347C146.553 94.1238 146.51 95.3199 146.584 96.6593C146.657 97.9987 146.851 99.5122 147.052 100.794C147.331 102.551 147.61 103.89 147.61 103.89C147.61 103.89 146.634 105.257 146.061 105.33C145.488 105.404 149.175 116.781 141.839 113.951Z" fill="#CF6F80"/>
<path opacity="0.1" d="M128.775 287.493L128.655 287.624C123.883 281.857 118.112 289.045 118.112 289.045L118.027 288.894L118.321 285.627L127.373 283.277L128.655 287.195L128.775 287.493Z" fill="black"/>
<path opacity="0.1" d="M164.071 283.277C164.071 283.277 160.585 283.204 158.726 284.845C156.867 286.486 147.881 285.201 148.269 284.845C148.383 284.668 148.453 284.466 148.47 284.257L149.69 283.277L163.974 282.855C164.028 283.115 164.071 283.277 164.071 283.277Z" fill="black"/>
<path d="M134.712 237.982C134.453 238.624 134.256 239.289 134.124 239.968C133.801 241.829 133.711 243.722 133.857 245.604C134 248.314 133.857 266.473 133.857 266.473C133.857 266.473 130.793 271.316 129.085 273.023C127.377 274.73 132.571 277.796 132.571 277.796C133.345 282.209 128.651 287.195 128.651 287.195C123.879 281.427 118.108 288.619 118.108 288.619C118.108 288.619 114.971 283.2 114.189 281.264C113.406 279.329 117.252 277.989 118.604 277.204C119.956 276.418 118.538 271.784 118.538 271.784C118.538 271.784 117.396 267.723 116.04 264.019C114.684 260.314 117.535 241.873 117.535 241.873C117.535 241.873 117.682 238.598 118.035 237.456C118.212 236.632 118.248 235.783 118.139 234.948C118.116 234.665 118.089 234.429 118.07 234.27C118.05 234.111 118.035 234.038 118.035 234.038L118.089 233.945L120.025 230.337C120.025 230.337 135.642 235.71 134.712 237.982Z" fill="#6C63FF"/>
<path d="M164.071 282.851C164.071 282.851 160.585 282.778 158.726 284.4C156.867 286.022 147.881 284.756 148.269 284.4C148.656 284.044 148.625 281.407 148.625 281.407C143.354 274.215 147.85 271.296 147.85 271.296C147.85 271.296 145.495 259.974 145.069 255.774C144.771 252.839 144.403 244.954 144.206 240.452C144.12 238.517 144.07 237.185 144.07 237.185L148.377 236.318L148.931 236.206L159.319 234.123C159.319 234.123 159.605 236.059 159.799 237.642C159.896 238.318 159.95 238.999 159.962 239.682C159.892 240.456 159.962 242.879 159.962 242.879L160.314 250.145C160.084 250.907 159.965 251.699 159.962 252.495C160.031 253.42 161.383 266.667 161.383 266.667C161.383 266.667 163.734 274.571 162.932 275.14C162.131 275.709 164.071 282.851 164.071 282.851Z" fill="#6C63FF"/>
<path opacity="0.1" d="M146.824 93.4347C146.553 94.1238 146.51 95.3199 146.584 96.6593C144.446 97.946 141.988 98.6039 139.493 98.5573C136.998 98.5108 134.566 97.7617 132.478 96.3961C132.363 94.4937 132.134 92.6 131.792 90.725C131.792 90.725 147.753 91.0773 146.824 93.4347Z" fill="black"/>
<path d="M152.994 84.8798C152.997 86.2747 152.777 87.6612 152.343 88.9869C151.373 91.9574 149.383 94.4894 146.725 96.1354C144.068 97.7814 140.913 98.4355 137.82 97.982C134.727 97.5285 131.893 95.9966 129.821 93.6571C127.748 91.3176 126.57 88.3211 126.494 85.1972C126.494 85.0888 126.494 84.9882 126.494 84.8798C126.464 83.1214 126.784 81.3747 127.437 79.7414C128.089 78.1082 129.06 76.6211 130.294 75.367C131.527 74.1129 132.999 73.1168 134.621 72.4368C136.244 71.7569 137.986 71.4067 139.746 71.4067C141.505 71.4067 143.247 71.7569 144.87 72.4368C146.493 73.1168 147.964 74.1129 149.197 75.367C150.431 76.6211 151.402 78.1082 152.055 79.7414C152.707 81.3747 153.028 83.1214 152.998 84.8798H152.994Z" fill="#CF6F80"/>
<path opacity="0.1" d="M141.839 113.951C136.727 111.965 130.15 105.404 131.792 102.338C132.157 101.564 132.374 100.729 132.431 99.8761L139.43 105.625L143.76 109.174L147.052 100.797C147.331 102.555 147.61 103.894 147.61 103.894C147.61 103.894 146.634 105.261 146.061 105.334C145.488 105.408 149.175 116.781 141.839 113.951Z" fill="black"/>
<path d="M159.938 139.357L154.094 237.487L146.471 237.986L126.734 181.086L129.972 113.533L130.653 99.2606L139.43 106.465L143.764 110.014L147.153 101.394L153.455 106.883L159.938 139.357Z" fill="#6C63FF"/>
<path opacity="0.1" d="M134.712 237.982C134.453 238.624 134.256 239.289 134.124 239.968C128.577 239.112 123.191 237.43 118.143 234.978L118.039 234.924L118.073 234.301L118.093 233.976L120.029 230.368C120.029 230.368 135.642 235.71 134.712 237.982Z" fill="black"/>
<path opacity="0.1" d="M148.466 239.984C147.048 240.225 145.618 240.388 144.182 240.471C144.097 238.536 144.047 237.204 144.047 237.204L148.354 236.337L148.466 239.984Z" fill="black"/>
<path opacity="0.1" d="M159.776 237.661C157.022 238.377 152.769 239.182 148.962 238.679L148.908 236.225L159.295 234.142C159.295 234.142 159.582 236.058 159.776 237.661Z" fill="black"/>
<path opacity="0.1" d="M148.892 239.128C133.012 241.838 118.468 234.069 118.468 234.069L118.608 231.436C118.608 231.436 118.968 201.595 117.969 199.307C116.97 197.019 116.191 185.418 116.756 183.637C117.322 181.857 114.692 155.154 114.692 155.154L114.266 144.315L98.6727 138.002L105.644 123.478C106.586 121.441 107.396 119.347 108.069 117.207C109.281 113.436 114.909 109.732 114.909 109.732C114.909 109.732 120.68 106.031 122.961 106.17C125.243 106.31 128.233 102.895 128.233 102.895C130.44 97.2709 132.439 99.818 132.439 99.818C132.439 100.085 132.439 99.818 132.33 100.65C131.556 106.825 144.856 126.335 145.046 126.679L146.313 157.516L147.595 196.539L148.892 239.128Z" fill="black"/>
<path d="M148.466 239.128C132.586 241.838 118.038 234.069 118.038 234.069L118.182 231.437C118.182 231.437 118.542 201.595 117.539 199.307C116.536 197.019 115.761 185.418 116.33 183.637C116.9 181.857 114.266 155.154 114.266 155.154L113.836 144.315L98.235 137.979L105.207 123.454C106.146 121.417 106.956 119.323 107.631 117.183C108.84 113.413 114.471 109.709 114.471 109.709C114.471 109.709 120.242 106.008 122.52 106.147C124.797 106.287 127.791 102.872 127.791 102.872C130.003 97.2477 132.439 99.7948 132.439 99.7948C132.439 100.062 132.207 100.182 132.33 100.627C134.035 106.616 144.43 126.311 144.62 126.656L145.902 157.492L147.184 196.516L148.466 239.128Z" fill="white"/>
<path opacity="0.1" d="M144.186 127.535C142.478 126.822 133.43 116.498 133.43 116.498V114.149C133.101 113.374 131.145 113.847 129.557 114.389L130.239 100.116L131.014 100.759C132.71 106.743 143.989 127.19 144.186 127.535Z" fill="black"/>
<path d="M144.616 126.679C142.904 125.967 133.857 115.643 133.857 115.643V113.293C133.527 112.519 131.571 112.991 129.983 113.533L130.669 99.2606L131.444 99.9032C133.144 105.888 144.426 126.338 144.616 126.679Z" fill="white"/>
<path opacity="0.1" d="M118.468 178.167C118.681 178.167 129.511 177.029 129.511 177.029C129.511 177.029 136.068 189.916 135.638 193.052C135.208 196.187 134.43 198.963 131.792 198.471C129.155 197.979 117.597 198.858 117.597 198.858L118.468 178.167Z" fill="black"/>
<path d="M118.039 177.312C118.252 177.312 129.081 176.174 129.081 176.174C129.081 176.174 135.634 189.064 135.208 192.196C134.782 195.328 133.996 198.107 131.362 197.615C128.728 197.124 117.167 198.003 117.167 198.003L118.039 177.312Z" fill="white"/>
<path d="M126.199 171.262C126.199 171.262 136.138 176.6 136.351 178.229C136.564 179.859 131.292 177.517 130.154 177.235C129.404 177.054 128.641 176.935 127.872 176.878L120.277 177.084L126.199 171.262Z" fill="#CF6F80"/>
<path opacity="0.1" d="M141.413 128.2C141.991 128.2 142.459 127.732 142.459 127.155C142.459 126.578 141.991 126.11 141.413 126.11C140.836 126.11 140.367 126.578 140.367 127.155C140.367 127.732 140.836 128.2 141.413 128.2Z" fill="black"/>
<path d="M141.413 127.775C141.991 127.775 142.459 127.307 142.459 126.729C142.459 126.152 141.991 125.684 141.413 125.684C140.836 125.684 140.367 126.152 140.367 126.729C140.367 127.307 140.836 127.775 141.413 127.775Z" fill="#3F3D56"/>
<path opacity="0.1" d="M143.338 173.445C143.916 173.445 144.384 172.977 144.384 172.4C144.384 171.822 143.916 171.354 143.338 171.354C142.76 171.354 142.292 171.822 142.292 172.4C142.292 172.977 142.76 173.445 143.338 173.445Z" fill="black"/>
<path d="M143.338 173.015C143.916 173.015 144.384 172.547 144.384 171.97C144.384 171.393 143.916 170.925 143.338 170.925C142.76 170.925 142.292 171.393 142.292 171.97C142.292 172.547 142.76 173.015 143.338 173.015Z" fill="#3F3D56"/>
<path opacity="0.1" d="M142.455 150.823C143.032 150.823 143.501 150.355 143.501 149.777C143.501 149.2 143.032 148.732 142.455 148.732C141.877 148.732 141.409 149.2 141.409 149.777C141.409 150.355 141.877 150.823 142.455 150.823Z" fill="black"/>
<path d="M142.455 150.397C143.032 150.397 143.501 149.929 143.501 149.352C143.501 148.774 143.032 148.306 142.455 148.306C141.877 148.306 141.409 148.774 141.409 149.352C141.409 149.929 141.877 150.397 142.455 150.397Z" fill="#3F3D56"/>
<path d="M166.561 176.662C166.561 176.662 167.274 177.73 166.561 178.229C165.849 178.729 166.631 179.937 166.631 179.937C166.631 179.937 164.853 180.978 165.636 181.915C166.418 182.851 165.922 187.082 165.922 187.082L163.784 190.621C163.784 190.621 163.912 192.901 163.92 195.982C163.92 200.79 163.637 207.548 162.072 210.63L162.289 235.911C162.289 235.911 154.803 238.644 148.536 237.812L147.606 197.244C147.606 197.244 148.962 174.238 149.461 169.825C149.754 167.534 149.873 165.225 149.818 162.916C149.818 162.916 149.605 156.01 148.888 152.805C148.888 152.805 148.114 138.919 148.036 135.075C148.001 133.237 148.098 127.871 148.207 122.769C148.327 117.191 148.462 111.93 148.462 111.93L147.048 100.751C147.048 100.751 148.462 100.608 148.888 101.177C149.079 101.355 149.287 101.514 149.508 101.653V101.653C151.948 103.302 160.57 108.373 160.57 108.373C160.57 108.373 165.341 110.27 166.484 112.987C167.627 115.705 168.421 117.632 168.974 118.407C169.528 119.181 169.83 122.82 169.83 122.82C169.83 122.82 171.473 129.517 172.755 130.651C174.037 131.785 174.974 139 174.974 139L163.645 147.904C163.645 147.904 162.65 162.714 162.437 163.287C162.224 163.86 166.561 176.662 166.561 176.662Z" fill="white"/>
<path d="M166.991 176.662C166.991 176.662 167.7 177.73 166.991 178.229C166.283 178.729 167.057 179.936 167.057 179.936C167.057 179.936 165.291 180.989 166.066 181.926C166.84 182.863 166.352 187.094 166.352 187.094L164.214 190.632C164.214 190.632 164.342 192.912 164.354 195.993C164.354 200.801 164.071 207.56 162.506 210.641L162.719 235.923C162.719 235.923 155.221 238.656 148.962 237.824L148.036 197.255C148.036 197.255 149.392 174.25 149.891 169.837C150.184 167.546 150.302 165.236 150.244 162.927C150.244 162.927 150.031 156.021 149.318 152.816C149.318 152.816 148.544 138.931 148.462 135.087C148.427 133.248 148.528 127.883 148.633 122.781C148.753 117.203 148.888 111.942 148.888 111.942L147.021 100.612C147.021 100.612 148.888 100.612 149.318 101.188C149.507 101.369 149.715 101.528 149.938 101.665C152.378 103.314 161.004 108.385 161.004 108.385C161.004 108.385 165.771 110.281 166.914 112.999C168.057 115.716 168.851 117.644 169.408 118.418C169.966 119.192 170.26 122.831 170.26 122.831C170.26 122.831 171.903 129.528 173.185 130.662C174.467 131.797 175.392 138.997 175.392 138.997L164.063 147.9C164.063 147.9 163.068 162.71 162.851 163.283C162.634 163.856 166.991 176.662 166.991 176.662Z" fill="white"/>
<path opacity="0.1" d="M153.424 115.229L154.446 118.209L149.063 123.629C149.183 118.054 149.318 112.79 149.318 112.79L147.451 101.459C147.451 101.459 149.318 101.459 149.748 102.036C149.937 102.216 150.144 102.374 150.368 102.508L154.946 115.709L153.424 115.229Z" fill="black"/>
<path d="M152.994 114.373L154.02 117.354L148.637 122.773C148.757 117.195 148.892 111.934 148.892 111.934L147.021 100.604C147.021 100.604 148.892 100.604 149.318 101.181C149.508 101.36 149.716 101.519 149.938 101.657L154.52 114.853L152.994 114.373Z" fill="white"/>
<path opacity="0.1" d="M152.994 84.8798C152.997 86.2747 152.777 87.6612 152.343 88.9869C152.27 88.9984 152.195 88.995 152.123 88.977C152.052 88.9591 151.984 88.9269 151.925 88.8824C151.824 85.3985 150.108 82.1275 147.997 79.3442C147.405 78.5039 146.686 77.7597 145.867 77.1378C145.039 76.5161 144.009 76.225 142.978 76.321C141.816 76.4797 140.789 77.2694 139.616 77.37C138.067 77.4978 136.68 76.4255 135.142 76.3713C134.517 76.3772 133.901 76.5163 133.334 76.7794C132.767 77.0424 132.262 77.4232 131.854 77.8965C131.046 78.8516 130.446 79.9642 130.092 81.1636C129.483 82.9824 129.151 84.8824 129.108 86.7998C129.089 87.8837 128.984 89.2424 127.977 89.6373C128.053 88.8401 127.962 88.036 127.711 87.2757C127.46 86.5154 127.053 85.8155 126.517 85.2204L126.494 85.1972C126.494 85.0888 126.494 84.9882 126.494 84.8798C126.464 83.1214 126.784 81.3747 127.437 79.7414C128.089 78.1082 129.06 76.6211 130.294 75.367C131.527 74.1129 132.999 73.1168 134.621 72.4368C136.244 71.7569 137.986 71.4067 139.746 71.4067C141.505 71.4067 143.247 71.7569 144.87 72.4368C146.493 73.1168 147.964 74.1129 149.197 75.367C150.431 76.6211 151.402 78.1082 152.055 79.7414C152.707 81.3747 153.028 83.1214 152.998 84.8798H152.994Z" fill="black"/>
<path d="M145.232 63.8486C143.219 62.9023 140.93 62.7234 138.795 63.3453C137.722 63.6627 136.711 64.1776 135.623 64.4369C133.299 64.9982 130.588 64.3905 128.593 65.7492C127.485 66.5234 126.819 67.7467 126.199 68.9351L124.65 71.8848C123.806 73.499 122.954 75.1403 122.601 76.9171C122.249 78.6939 122.462 80.6836 123.589 82.112C124.41 83.1533 125.622 83.8075 126.513 84.7869C127.047 85.3826 127.452 86.082 127.702 86.8414C127.953 87.6008 128.044 88.4037 127.969 89.1998C128.98 88.8127 129.077 87.4501 129.1 86.3663C129.143 84.4488 129.475 82.5488 130.084 80.7301C130.438 79.5303 131.038 78.4175 131.846 77.4629C132.255 76.99 132.759 76.6094 133.326 76.3465C133.893 76.0835 134.51 75.9442 135.135 75.9377C136.684 75.9919 138.074 77.0603 139.608 76.9326C140.77 76.8358 141.8 76.0423 142.97 75.8874C144.001 75.7899 145.032 76.0812 145.859 76.7042C146.678 77.3252 147.396 78.0696 147.986 78.9107C150.101 81.6939 151.816 84.9572 151.917 88.4489C152.355 88.7702 152.986 88.3521 153.203 87.8566C153.42 87.3611 153.428 86.7805 153.703 86.3082C154.02 85.7624 154.628 85.4721 155.105 85.0617C156.313 84.0204 156.615 82.2669 156.569 80.6759C156.522 79.0849 156.212 77.4707 156.515 75.9068C156.697 74.9468 157.107 74.0487 157.332 73.1003C157.556 72.1519 157.584 71.0874 157.053 70.2706C156.278 69.0706 154.648 68.8344 153.226 68.7222C151.611 68.5828 150.166 68.7609 149.136 67.4022C148.653 66.6931 148.108 66.0274 147.509 65.4124C147.304 65.2112 145.232 63.9337 145.232 63.8486Z" fill="#512E4E"/>
<path opacity="0.1" d="M103.135 145.481L99.0871 138.002L97.8051 149.541C97.8051 149.541 98.5178 154.666 98.3745 155.452C98.2312 156.238 101.295 163.283 101.295 163.283C101.295 163.283 111.415 181.299 115.548 182.228L129.511 172.256L125.808 167.557C125.808 167.557 124.526 167.058 124.205 167.557C124.205 167.557 117.33 155.735 116.617 154.879C115.904 154.024 116.044 152.317 116.044 152.317C116.044 152.317 114.975 151.179 115.331 150.11C115.688 149.042 113.267 145.337 113.267 145.337L115.474 143.274L103.135 145.481Z" fill="black"/>
<path d="M99.3001 137.15L98.2311 138.002L96.9491 149.541C96.9491 149.541 97.6618 154.666 97.5185 155.452C97.3752 156.238 100.443 163.283 100.443 163.283C100.443 163.283 110.559 181.299 114.692 182.228L128.659 172.256L124.952 167.557C124.952 167.557 123.67 167.058 123.349 167.557C123.349 167.557 116.474 155.735 115.761 154.879C115.048 154.024 115.192 152.317 115.192 152.317C115.192 152.317 114.123 151.179 114.479 150.11C114.835 149.042 112.411 145.337 112.411 145.337L114.619 143.274L99.3001 137.15Z" fill="white"/>
<path opacity="0.1" d="M165.636 182.356C166.41 183.297 165.922 187.52 165.922 187.52L163.784 191.058C163.784 191.058 163.912 193.342 163.92 196.419L160.326 197.542C160.001 197.643 159.656 197.666 159.321 197.607C158.986 197.548 158.67 197.41 158.399 197.205C158.128 196.999 157.91 196.731 157.763 196.424C157.617 196.117 157.546 195.78 157.556 195.44L158.176 175.462L166.561 178.667C165.849 179.162 166.631 180.378 166.631 180.378C166.631 180.378 164.853 181.415 165.636 182.356Z" fill="black"/>
<path d="M166.066 181.926C166.84 182.867 166.352 187.094 166.352 187.094L164.214 190.632C164.214 190.632 164.342 192.912 164.354 195.993L160.694 197.135C160.376 197.234 160.038 197.256 159.71 197.198C159.382 197.14 159.073 197.005 158.807 196.803C158.542 196.602 158.329 196.34 158.186 196.04C158.042 195.739 157.972 195.409 157.982 195.076L158.606 175.036L166.995 178.241C166.279 178.736 167.061 179.948 167.061 179.948C167.061 179.948 165.291 180.989 166.066 181.926Z" fill="white"/>
<path d="M168.843 172.403C168.843 172.403 168.273 176.038 166.848 176.251C165.423 176.464 164.784 182.131 163.362 181.93C161.941 181.729 162.882 176.662 162.932 175.678C162.983 174.695 161.383 170.623 162.58 169.698C163.777 168.772 167.565 169.698 167.565 169.698L168.843 172.403Z" fill="#CF6F80"/>
<path opacity="0.1" d="M171.875 144.412L174.563 138.993C174.563 138.993 175.632 143.123 175.632 145.33C175.632 147.536 177.127 147.753 177.127 147.753C177.127 147.753 178.766 149.688 177.902 151.097C177.038 152.506 176.69 156.014 176.69 156.014C176.69 156.014 176.973 162.707 175.691 163.632C174.409 164.557 174.141 166.767 174.141 166.767C174.141 166.767 171.786 170.967 171.86 171.966C171.934 172.965 168.583 179.727 168.583 179.727C168.583 179.727 170.222 171.323 160.674 167.692C160.674 167.692 160.601 164.84 161.313 164.058C162.026 163.276 163.138 162.92 162.44 158.967C161.743 155.015 162.239 150.292 162.239 149.344C162.239 148.395 164.377 142.481 164.377 142.481L171.875 144.412Z" fill="black"/>
<path d="M173.037 138.219L175.385 138.993C175.385 138.993 176.457 143.123 176.457 145.33C176.457 147.536 177.952 147.753 177.952 147.753C177.952 147.753 179.591 149.688 178.727 151.097C177.863 152.506 177.519 156.014 177.519 156.014C177.519 156.014 177.801 162.707 176.519 163.632C175.237 164.557 174.951 166.767 174.951 166.767C174.951 166.767 172.6 170.967 172.673 171.966C172.747 172.965 169.393 179.727 169.393 179.727C169.393 179.727 171.035 171.323 161.484 167.692C161.484 167.692 161.414 164.84 162.127 164.058C162.839 163.276 163.951 162.92 163.254 158.967C162.557 155.015 163.052 150.292 163.052 149.344C163.052 148.395 165.19 142.481 165.19 142.481L173.037 138.219Z" fill="white"/>
<path opacity="0.1" d="M121.195 278.686C121.195 278.686 124.937 276.336 127.392 278.044C129.848 279.751 121.195 278.686 121.195 278.686Z" fill="black"/>
<path opacity="0.1" d="M150.267 271.42C150.267 271.42 153.579 270.994 156.36 273.987C159.141 276.979 150.267 271.42 150.267 271.42Z" fill="black"/>
<g opacity="0.1">
<path d="M155.112 84.214C154.636 84.6243 154.024 84.9185 153.706 85.4643C153.435 85.9327 153.428 86.5095 153.211 87.0127C152.994 87.516 152.362 87.9263 151.925 87.6089C151.824 84.1249 150.104 80.8539 147.994 78.0668C147.403 77.2257 146.686 76.4813 145.867 75.8603C145.038 75.2374 144.006 74.9462 142.974 75.0435C141.812 75.2022 140.789 75.9919 139.616 76.0887C138.067 76.2203 136.676 75.1481 135.139 75.0939C134.514 75.1001 133.897 75.2397 133.331 75.5034C132.764 75.7671 132.261 76.1488 131.854 76.6229C131.046 77.576 130.445 78.6876 130.092 79.8862C129.483 81.705 129.152 83.605 129.108 85.5224C129.085 86.6024 128.984 87.9495 127.985 88.3521C128.008 88.6381 128.008 88.9255 127.985 89.2115C128.992 88.8244 129.093 87.4618 129.116 86.3779C129.159 84.4604 129.491 82.5604 130.1 80.7417C130.453 79.5419 131.053 78.4291 131.862 77.4745C132.27 77.0017 132.773 76.6212 133.34 76.3582C133.906 76.0952 134.522 75.9558 135.146 75.9494C136.696 76.0035 138.09 77.0719 139.624 76.9442C140.786 76.8474 141.816 76.0539 142.982 75.899C144.014 75.8016 145.046 76.0929 145.875 76.7158C146.694 77.3368 147.411 78.0812 148.001 78.9223C150.112 81.7056 151.832 84.9688 151.933 88.4605C152.37 88.7818 153.002 88.3637 153.218 87.8682C153.435 87.3727 153.443 86.7921 153.714 86.3198C154.032 85.774 154.644 85.4837 155.12 85.0733C156.329 84.032 156.631 82.2785 156.584 80.6875C156.584 80.6372 156.584 80.5868 156.584 80.5404C156.511 81.9185 156.143 83.3236 155.112 84.214Z" fill="black"/>
<path d="M126.521 83.9391C125.63 82.9598 124.414 82.3056 123.597 81.2681C122.908 80.3497 122.515 79.2442 122.469 78.0978C122.348 79.5304 122.748 80.9588 123.597 82.1198C124.414 83.1611 125.63 83.8153 126.521 84.7946C127.376 85.7526 127.89 86.9669 127.981 88.2476C128.04 87.4682 127.941 86.6848 127.691 85.9445C127.44 85.2042 127.042 84.5221 126.521 83.9391V83.9391Z" fill="black"/>
<path d="M157.339 72.2525C157.111 73.2009 156.704 74.1029 156.518 75.059C156.408 75.6979 156.368 76.3469 156.398 76.9945C156.411 76.6256 156.451 76.2582 156.518 75.8952C156.704 74.9352 157.111 74.0371 157.339 73.0887C157.473 72.5656 157.516 72.0237 157.467 71.4861C157.443 71.7443 157.401 72.0005 157.339 72.2525V72.2525Z" fill="black"/>
</g>
<path opacity="0.1" d="M51.4085 294.426C72.2518 294.426 89.1486 291.713 89.1486 288.368C89.1486 285.022 72.2518 282.309 51.4085 282.309C30.5652 282.309 13.6684 285.022 13.6684 288.368C13.6684 291.713 30.5652 294.426 51.4085 294.426Z" fill="#6C63FF"/>
<path d="M52.6247 172.314H50.1962V226.962H52.6247V172.314Z" fill="#535461"/>
<path d="M67.8849 226.795L67.7339 229.257L67.517 232.741L67.4279 234.189L67.2149 237.673L67.1219 239.12L66.905 242.604L64.4572 282.116C64.3508 283.816 63.6002 285.411 62.3583 286.578C61.1164 287.744 59.4764 288.394 57.7721 288.395H45.0449C43.341 288.394 41.7015 287.744 40.4602 286.578C39.2188 285.411 38.4691 283.816 38.3637 282.116L35.9275 242.577L35.7106 239.093L35.6215 237.646L35.4046 234.162L35.3155 232.714L35.0986 229.23L34.9437 226.768C34.9168 226.294 34.987 225.82 35.1501 225.374C35.3132 224.928 35.5657 224.521 35.8921 224.176C36.2185 223.831 36.612 223.557 37.0483 223.37C37.4846 223.182 37.9547 223.086 38.4295 223.087H64.4611C64.9341 223.091 65.4014 223.192 65.8339 223.383C66.2664 223.575 66.6551 223.853 66.976 224.2C67.2968 224.548 67.543 224.957 67.6993 225.404C67.8556 225.85 67.9188 226.324 67.8849 226.795V226.795Z" fill="#3F3D56"/>
<path d="M67.7339 229.257L67.517 232.729H35.3L35.0831 229.257H67.7339Z" fill="#9D9CB5"/>
<path d="M67.4279 234.177L67.2149 237.653H35.606L35.3891 234.177H67.4279Z" fill="#9D9CB5"/>
<path d="M67.1219 239.105L66.9089 242.577H35.912L35.6951 239.105H67.1219Z" fill="#9D9CB5"/>
<path d="M31.3765 192.796C45.5174 203.023 51.4201 219.018 51.4201 219.018C51.4201 219.018 34.3782 218.434 20.2334 208.207C6.08859 197.979 0.19751 181.988 0.19751 181.988C0.19751 181.988 17.2317 182.569 31.3765 192.796Z" fill="#6C63FF"/>
<path d="M0.185913 181.988C0.185913 181.988 17.8785 191.801 23.5527 199.926C29.2269 208.052 51.4201 219.018 51.4201 219.018" stroke="#535461" stroke-width="2" stroke-miterlimit="10"/>
<path d="M40.5055 172.194C48.2015 177.757 51.4201 186.463 51.4201 186.463C51.4201 186.463 42.1439 186.146 34.444 180.583C26.7442 175.02 23.5333 166.311 23.5333 166.311C23.5333 166.311 32.8057 166.628 40.5055 172.194Z" fill="#6C63FF"/>
<path d="M23.5333 166.311C23.5333 166.311 33.162 171.653 36.2489 176.073C39.3358 180.494 51.4201 186.463 51.4201 186.463" stroke="#535461" stroke-width="2" stroke-miterlimit="10"/>
<path d="M62.5942 186.022C53.7518 195.734 51.881 208.427 51.881 208.427C51.881 208.427 64.3487 205.369 73.1834 195.653C82.0181 185.937 83.8966 173.247 83.8966 173.247C83.8966 173.247 71.4366 176.309 62.5942 186.022Z" fill="#6C63FF"/>
<path d="M83.9043 173.251C83.9043 173.251 72.3855 183.207 69.4574 190.067C66.5293 196.926 51.881 208.427 51.881 208.427" stroke="#535461" stroke-width="2" stroke-miterlimit="10"/>
<path d="M387.188 182.604C387.188 182.604 380.794 150.807 383.242 146.851C383.242 146.851 383.331 143.173 383.184 138.486C383.184 138.308 383.184 138.13 383.184 137.948C383.614 138.235 384.063 138.493 384.528 138.722C386.783 139.88 389.372 140.214 391.848 139.666L389.911 137.51C389.446 136.995 388.962 136.438 388.862 135.757C388.761 135.075 389.04 134.468 389.28 133.86C391.12 129.215 391.217 123.373 387.673 119.827C384.679 116.847 383.951 112.999 380.701 110.278C378.327 108.284 377.021 105.361 375.79 102.536C374.748 100.147 373.698 97.7393 373.102 95.2077C372.637 93.2296 372.451 91.1818 371.812 89.2502C371.173 87.3185 369.976 85.4411 368.105 84.5779C367.439 84.272 366.699 84.0978 366.091 83.6914C365.293 83.1533 364.813 82.2785 364.236 81.512C361.304 77.641 351.486 79.921 346.838 81.4927C345.574 81.8884 344.404 82.5364 343.398 83.3972L343.441 83.3275C343.476 83.2695 343.519 83.2114 343.557 83.1533C343.049 83.5645 342.609 84.0546 342.256 84.605C341.578 85.6772 341.295 86.9276 340.73 88.0889C340.048 89.4631 336.256 93.2993 337.887 94.8438C338.001 94.9475 338.132 95.0313 338.274 95.0915C338.886 95.3462 339.56 95.4135 340.211 95.2851L340.141 95.4515C339.584 96.8143 339.299 98.2725 339.301 99.7445C339.301 106.105 344.549 111.261 351.029 111.261C352.247 111.262 353.458 111.075 354.619 110.707C354.646 110.854 354.669 111.001 354.697 111.149C354.697 111.207 354.716 111.265 354.724 111.323L354.518 111.609C354.508 111.592 354.496 111.575 354.483 111.559L348.403 120.052C347.473 120.706 342.12 124.577 341.818 127.48C341.501 130.658 341.183 134.378 341.183 134.378L341.14 135.176C340.875 135.398 340.564 135.56 340.23 135.65C339.895 135.74 339.545 135.757 339.204 135.699C337.306 135.389 337.306 142.666 337.306 142.666C337.306 142.666 336.043 143.828 335.176 142.821C334.308 141.815 332.015 145.225 332.015 145.225L317.646 145.844L317.317 145.864L316.542 143.468C316.459 143.215 316.279 143.005 316.042 142.884C315.805 142.763 315.529 142.741 315.275 142.821C315.215 142.841 315.157 142.866 315.101 142.895L315.047 142.926L314.946 142.995L314.896 143.042C314.868 143.067 314.842 143.094 314.818 143.123L314.772 143.177L314.749 143.201C314.659 143.324 314.6 143.467 314.576 143.618C314.552 143.768 314.563 143.922 314.609 144.068L315.275 146.123C312.502 146.681 309.667 148.252 311.979 152.58L300.259 150.416L304.051 153.598L323.626 157.636C323.366 158.1 323.537 158.774 324.346 159.722C327.832 163.814 334.184 164.925 336.741 165.211C337.416 166.72 338.259 168.149 339.254 169.469L339.033 173.545C339.033 173.545 332.561 204.614 331.376 206.19C331.974 205.512 332.522 204.792 333.015 204.034C331.136 210.417 328.51 219.154 327.821 220.462C326.713 222.553 325.687 231.011 326.949 231.553C327.336 231.719 328.444 231.638 330.024 231.518V232.218L329.955 258.77C329.955 258.77 330.272 275.055 329.401 276.607C328.529 278.16 328.297 281.415 328.297 281.415C328.297 281.415 324.811 287.837 322.05 290.419C322.031 290.439 322.01 290.457 321.988 290.473L321.902 289.87C321.902 289.87 318.583 294.058 311.24 293.822C311.24 293.822 306.82 296.694 313.374 296.849C319.927 297.004 328.297 296.617 328.297 296.617C328.297 296.617 334.142 287.713 339.037 288.875V295.622H340.536V288.766C341.231 288.309 341.826 287.715 342.285 287.021C342.744 286.327 343.057 285.547 343.205 284.729C343.333 283.885 343.239 283.023 342.932 282.226C342.625 281.43 342.116 280.728 341.454 280.188C341.157 279.92 340.919 279.592 340.754 279.227C340.589 278.862 340.502 278.467 340.497 278.067L340.443 278.113C340.443 277.978 340.408 277.838 340.393 277.695C339.963 274.211 339.425 267.023 341.326 261.704C343.933 254.411 344.723 244.253 342.825 238.207C342.213 236.274 341.71 234.308 341.319 232.319C341.272 232.068 341.23 231.827 341.191 231.603C342.488 231.778 343.773 232.037 345.037 232.377C349.433 233.589 359.05 233.813 367.261 233.748C367.28 233.972 367.304 234.208 367.331 234.444C367.477 236.086 367.783 237.709 368.245 239.291C369.275 242.388 369.748 256.041 369.748 256.041C369.748 256.041 371.076 267.267 370.352 271.834C369.965 274.374 369.577 276.925 369.356 279.487V279.538C369.356 279.538 367.18 285.731 365.588 289.095C365.549 289.18 365.507 289.266 365.468 289.347C365.043 289.386 364.626 289.478 364.224 289.622C364.224 289.622 362.09 293.88 359.964 294.584C357.838 295.289 358.543 297.608 363.357 296.756C368.171 295.904 375.441 295.208 375.441 295.208L375.755 290.864L377.234 289.014L376.847 293.346L378.424 293.036L378.214 287.768L380.635 284.74C380.635 284.74 383.559 282.139 379.214 277.022V277.134C379.167 277.06 379.125 276.983 379.074 276.909V276.886C378.354 275.771 377.781 273.693 378.83 270.003C380.728 263.338 381.832 257.287 381.832 257.287C381.832 257.287 386.069 241.079 380.976 233.411H381.201C380.679 232.332 380.31 231.185 380.104 230.004C380.079 229.865 380.055 229.722 380.035 229.575C383.803 229.358 387.502 228.676 390.519 227.205C390.508 227.19 388.691 188.728 387.188 182.604ZM339.343 155.777V155.855L338.569 155.894L339.343 155.777ZM336.686 156.145C336.559 156.173 336.44 156.23 336.338 156.312C336.005 156.783 335.796 157.33 335.73 157.903L334.521 157.632C334.521 157.632 333.673 157.45 332.453 157.245L331.876 156.664C333.464 156.532 335.114 156.339 336.686 156.145V156.145Z" fill="url(#paint1_linear_2_2)"/>
<path d="M376.669 287.822L376.208 293.307L377.753 292.997L377.521 287.048L376.669 287.822Z" fill="#1D2366"/>
<path d="M341.412 261.778C339.549 267.081 340.075 274.238 340.494 277.715C340.649 279 340.792 279.782 340.792 279.782C340.792 279.782 338.007 286.122 337.775 286.362C337.542 286.602 329.579 291.461 329.579 291.461L324.013 294.708C324.013 294.708 318.366 292.235 321.074 291.383C321.627 291.161 322.125 290.822 322.534 290.388C325.245 287.814 328.649 281.415 328.649 281.415C328.649 281.415 328.882 278.167 329.734 276.623C330.586 275.078 330.276 258.847 330.276 258.847L330.342 232.389V228.94L340.935 229.017C341.002 230.188 341.155 231.352 341.392 232.501C341.772 234.484 342.265 236.443 342.868 238.369C344.735 244.404 343.96 254.512 341.412 261.778Z" fill="#FFB0B1"/>
<path opacity="0.1" d="M340.792 279.782C340.792 279.782 338.007 286.122 337.775 286.362C337.542 286.602 329.579 291.46 329.579 291.46L324.013 294.708C324.013 294.708 318.366 292.235 321.074 291.383C321.627 291.161 322.125 290.822 322.534 290.388L322.774 292.08L324.629 292.002L340.509 277.722C340.649 279 340.792 279.782 340.792 279.782Z" fill="black"/>
<path d="M340.598 278.082L324.629 292.459L322.774 292.537L322.387 289.827C322.387 289.827 319.141 294 311.929 293.768C311.929 293.768 307.599 296.628 314.017 296.783C320.434 296.938 328.63 296.551 328.63 296.551C328.63 296.551 334.355 287.648 339.146 288.809V295.533H340.618V288.747C341.302 288.287 341.886 287.693 342.334 287.001C342.783 286.309 343.087 285.533 343.228 284.721C343.355 283.884 343.265 283.029 342.966 282.237C342.667 281.445 342.169 280.744 341.52 280.2C341.23 279.928 340.999 279.6 340.84 279.236C340.682 278.872 340.599 278.479 340.598 278.082V278.082Z" fill="#1D2366"/>
<path d="M378.141 270.046C377.11 273.723 377.672 275.794 378.377 276.905V276.929C379.281 278.3 379.91 279.835 380.228 281.446L380.29 281.795L373.024 292.382L369.081 293.93C369.081 293.93 362.741 291.766 363.899 291.147C364.19 290.996 364.643 290.191 365.162 289.08C366.711 285.731 368.849 279.553 368.849 279.553V279.503C369.074 276.952 369.43 274.409 369.825 271.877C370.534 267.321 369.232 256.137 369.232 256.137C369.232 256.137 368.768 242.539 367.761 239.446C367.306 237.873 367.004 236.26 366.858 234.63C366.649 232.695 366.603 231.1 366.603 231.1C366.603 231.1 370.778 225.293 378.431 231.564C379.043 232.064 379.582 232.648 380.031 233.298C385.318 240.816 381.061 257.376 381.061 257.376C381.061 257.376 379.996 263.399 378.141 270.046Z" fill="#FFB0B1"/>
<path opacity="0.1" d="M380.302 281.795L373.036 292.382L369.093 293.93C369.093 293.93 362.753 291.766 363.911 291.147C364.201 290.996 364.654 290.191 365.173 289.08C367.858 289.057 369.248 291.611 369.248 291.611L372.649 291.07C372.649 291.07 377.134 282.259 378.141 281.721C379.148 281.183 378.296 277.699 378.296 277.699V276.813C378.323 276.844 378.346 276.878 378.377 276.909V276.933C379.281 278.304 379.91 279.839 380.228 281.45L380.302 281.795Z" fill="black"/>
<path d="M369.48 291.84C369.48 291.84 367.544 288.286 363.833 289.599C363.833 289.599 361.746 293.857 359.658 294.546C357.57 295.235 358.268 297.557 362.985 296.71C367.703 295.862 374.814 295.161 374.814 295.161L375.124 290.83L379.919 284.725C379.919 284.725 382.777 282.135 378.524 277.037V277.924C378.524 277.924 379.376 281.407 378.369 281.946C377.362 282.484 372.893 291.298 372.893 291.298L369.48 291.84Z" fill="#1D2366"/>
<path opacity="0.1" d="M340.947 229.009C341.014 230.18 341.166 231.345 341.404 232.493C337.043 231.855 332.995 232.172 330.342 232.381V228.932L340.947 229.009Z" fill="black"/>
<path opacity="0.1" d="M380.461 234.262C380.461 234.262 374.264 234.564 366.874 234.626C366.665 232.691 366.618 231.096 366.618 231.096C366.618 231.096 370.793 225.289 378.447 231.56C379.059 232.061 379.597 232.644 380.046 233.295C380.166 233.625 380.305 233.948 380.461 234.262V234.262Z" fill="black"/>
<path d="M380.461 233.566C380.461 233.566 353.318 234.878 345.045 232.559C336.771 230.24 328.572 232.249 327.336 231.711C326.101 231.173 327.104 222.746 328.189 220.66C329.273 218.573 335.222 197.472 335.222 197.472L340.947 167.642L346.977 165.981L347.403 165.861L357.911 162.966L365.611 160.841C365.611 160.841 380.922 220.582 379.609 224.987C379.132 226.674 379.055 228.449 379.384 230.171C379.585 231.347 379.947 232.489 380.461 233.566V233.566Z" fill="#1D2366"/>
<path d="M320.992 147.242C320.992 147.242 315.57 153.048 319.675 156.285C323.781 159.521 326.481 156.594 326.481 156.594L320.992 147.242Z" fill="#C7DAF5"/>
<path opacity="0.1" d="M320.992 147.242C320.992 147.242 315.57 153.048 319.675 156.285C323.781 159.521 326.481 156.594 326.481 156.594L320.992 147.242Z" fill="black"/>
<path d="M364.802 109.066C364.802 109.066 364.166 109.67 363.21 110.56C361.846 111.834 359.828 113.696 358.039 115.256C355.56 117.412 353.515 118.995 354.247 117.644C354.979 116.293 354.84 113.94 354.476 111.737C354.449 111.59 354.425 111.443 354.398 111.299C354.097 109.682 353.697 108.084 353.201 106.515C353.201 106.515 357.206 101.343 359.422 99.3032C360.247 98.529 360.824 98.2116 360.859 98.7497C360.897 99.4735 361.44 101.072 362.114 102.768C362.133 102.822 362.152 102.872 362.176 102.926C362.625 104.088 363.132 105.28 363.578 106.31C364.259 107.889 364.802 109.066 364.802 109.066Z" fill="#FFB0B1"/>
<path opacity="0.1" d="M362.176 102.926C361.799 104.95 360.886 106.835 359.532 108.384C358.177 109.934 356.431 111.092 354.476 111.737C354.168 109.97 353.742 108.225 353.201 106.515C353.201 106.515 360.743 96.7793 360.859 98.7497C360.886 99.4968 361.475 101.154 362.176 102.926Z" fill="black"/>
<path opacity="0.1" d="M353.724 114.338L354.7 112.964C354.7 112.964 355.347 116.905 357.725 115.167C360.103 113.429 360.22 128.247 360.22 128.247L357.667 166.388L339.223 165.285L339.746 146.855L341.834 137.564L346.997 124.058L350.068 119.595L353.724 114.338Z" fill="black"/>
<path d="M360.22 128.483L357.896 162.97L357.652 166.624L347.368 166.009L346.981 165.985L339.235 165.521L339.758 147.087L341.845 137.797L347.008 124.291L350.08 119.827L353.736 114.551L354.712 113.181C354.712 113.181 355.359 117.121 357.737 115.383L357.787 115.349C360.111 113.878 360.22 128.483 360.22 128.483Z" fill="#1D2366"/>
<path d="M342.105 134.568C342.105 134.568 341.179 136.504 339.32 136.19C337.461 135.877 337.465 143.158 337.465 143.158C337.465 143.158 336.229 144.319 335.377 143.313C334.525 142.306 332.279 145.709 332.279 145.709L318.204 146.328C318.204 146.328 324.466 149.189 323.239 157.845C323.239 157.845 344.502 156.528 345.2 154.519C345.897 152.51 342.105 134.568 342.105 134.568Z" fill="white"/>
<path opacity="0.03" d="M342.105 134.568C342.105 134.568 341.179 136.504 339.32 136.19C337.461 135.877 337.465 143.158 337.465 143.158C337.465 143.158 336.229 144.319 335.377 143.313C334.525 142.306 332.279 145.709 332.279 145.709L318.204 146.328C318.204 146.328 324.466 149.189 323.239 157.845C323.239 157.845 344.502 156.528 345.2 154.519C345.897 152.51 342.105 134.568 342.105 134.568Z" fill="black"/>
<path d="M301.2 150.877L304.911 154.043L335.455 160.458L331.667 156.594L301.2 150.877Z" fill="white"/>
<path d="M353.782 115.558C353.275 116.332 351.823 120.296 350.61 123.756C349.599 126.64 348.755 129.176 348.755 129.176C348.755 129.176 346.784 142.004 345.777 144.323C344.77 146.642 345.316 155.685 345.316 155.685L341.563 178.016C341.563 178.016 339.862 189.533 337.236 196.412C334.645 203.182 331.76 206.356 331.671 206.457C332.833 204.885 339.165 173.94 339.165 173.94L341.257 134.913C341.257 134.913 341.563 131.204 341.872 128.034C342.182 124.864 348.457 120.536 348.457 120.536L354.507 111.938C355.115 112.751 354.708 114.168 353.782 115.558Z" fill="white"/>
<path d="M338.007 165.714C338.007 165.714 329.099 165.327 324.784 160.148C320.469 154.968 334.757 158.081 334.757 158.081L338.472 158.932L338.007 165.714Z" fill="#FFB0B1"/>
<path opacity="0.1" d="M379.609 224.991C379.132 226.678 379.055 228.453 379.384 230.175C369.666 230.864 359.271 228.239 359.271 228.239C357.334 230.02 352.233 232.644 352.233 232.644L349.452 198.192C347.674 193.547 346.977 169.21 346.977 169.21C346.977 169.21 347.136 167.936 347.365 166.028C347.365 165.981 347.365 165.931 347.384 165.885C348.077 160.554 349.452 150.548 350.126 149.197C351.056 147.339 347.268 142.395 347.268 142.395L348.991 127.705L349.2 125.932C352.834 124.31 355.618 119.131 355.618 119.131L357.756 115.387C360.08 113.897 360.2 128.502 360.2 128.502L357.876 162.989L365.576 160.864C365.576 160.864 380.922 220.586 379.609 224.991Z" fill="black"/>
<path d="M389.582 227.372C378.989 232.629 359.736 227.759 359.736 227.759C357.799 229.54 352.698 232.164 352.698 232.164L349.913 197.712C348.139 193.067 347.442 168.73 347.442 168.73C347.442 168.73 349.681 150.571 350.61 148.717C350.881 148.175 350.75 147.37 350.428 146.503C348.848 142.375 348.266 137.933 348.732 133.538L349.475 127.225L349.681 125.456C353.318 123.83 356.102 118.651 356.102 118.651L358.039 115.26L361.602 109.012L363.291 106.054L363.578 106.314L365.766 108.296C365.766 108.296 366.696 109.07 368.09 110.231C371.123 112.786 376.363 117.284 379.066 120.036C381.445 122.46 382.196 131.886 382.413 138.981C382.556 143.653 382.471 147.315 382.471 147.315C380.073 151.26 386.344 182.929 386.344 182.929C387.804 189.049 389.582 227.372 389.582 227.372Z" fill="white"/>
<path opacity="0.03" d="M369.248 118.573C369.248 118.573 361.978 132.404 362.822 137.661C363.667 142.918 366.068 148.868 364.91 150.257C364.512 150.784 363.998 151.211 363.407 151.506C362.817 151.801 362.166 151.955 361.506 151.957C360.344 152.034 357.245 154.198 357.245 154.43C357.245 154.663 354.383 154.663 351.823 155.747C349.262 156.83 345.482 157.446 345.482 157.446C345.482 157.446 338.123 157.214 337.438 157.91C336.752 158.607 336.047 162.776 337.515 166.101C338.983 169.427 340.614 171.908 341.845 172.361C343.077 172.814 350.893 170.197 357.233 169.578C363.574 168.958 370.456 163.938 370.456 163.938C370.456 163.938 378.036 161.228 379.365 156.672C380.693 152.115 377.742 127.074 377.742 127.074C377.742 127.074 375.511 115.403 369.248 118.573Z" fill="black"/>
<path opacity="0.03" d="M368.318 117.412C368.318 117.412 361.048 131.247 361.901 136.5C362.753 141.753 365.146 147.706 363.984 149.1C363.588 149.627 363.074 150.055 362.484 150.35C361.894 150.645 361.243 150.799 360.584 150.799C359.422 150.877 356.323 153.041 356.323 153.273C356.323 153.505 353.461 153.505 350.901 154.585C348.341 155.665 344.56 156.285 344.56 156.285C344.56 156.285 337.201 156.052 336.52 156.749C335.838 157.446 335.125 161.619 336.597 164.94C338.069 168.262 339.696 170.747 340.927 171.2C342.159 171.653 349.975 169.036 356.315 168.42C362.656 167.805 369.538 162.776 369.538 162.776C369.538 162.776 377.114 160.067 378.427 155.514C379.74 150.962 376.805 125.913 376.805 125.913C376.805 125.913 374.581 114.245 368.318 117.412Z" fill="black"/>
<path d="M369.019 117.876C369.019 117.876 361.75 131.711 362.602 136.964C363.454 142.217 365.847 148.171 364.689 149.561C364.293 150.089 363.779 150.518 363.188 150.813C362.597 151.109 361.946 151.263 361.285 151.264C360.123 151.341 357.024 153.505 357.024 153.734C357.024 153.962 354.166 153.966 351.602 155.05C349.038 156.134 345.261 156.749 345.261 156.749C345.261 156.749 337.902 156.517 337.217 157.214C336.531 157.91 335.826 162.083 337.294 165.405C338.762 168.726 340.393 171.211 341.625 171.664C342.856 172.117 350.672 169.5 357.013 168.881C363.353 168.261 370.236 163.241 370.236 163.241C370.236 163.241 377.815 160.531 379.144 155.975C380.472 151.419 377.54 126.377 377.54 126.377C377.54 126.377 375.278 114.725 369.019 117.876Z" fill="white"/>
<path opacity="0.1" d="M368.861 154.984C368.861 154.984 363.051 153.823 365.073 155.758C367.095 157.694 367.083 159.389 369.558 159.312C372.033 159.234 368.861 154.984 368.861 154.984Z" fill="black"/>
<path opacity="0.1" d="M378.679 196.628C378.679 196.628 376.053 198.405 381.077 202.501C386.1 206.596 378.679 196.628 378.679 196.628Z" fill="black"/>
<path opacity="0.1" d="M373.667 211.234C373.667 211.466 372.738 219.75 376.216 221.821C379.694 223.892 373.667 211.234 373.667 211.234Z" fill="black"/>
<path d="M318.444 146.309C315.64 146.406 309.582 147.261 312.723 153.118C315.5 158.301 320.167 154.837 322.793 152.208C322.153 149.758 320.596 147.646 318.444 146.309V146.309Z" fill="#FFB0B1"/>
<path d="M322.828 152.162L322.944 152.042L322.828 152.162Z" fill="#FFB0B1"/>
<path opacity="0.1" d="M368.09 110.467C365.115 112.5 362.621 114.214 362.133 114.571C360.801 115.558 358.26 121.353 356.621 124.31C355.316 126.691 351.075 127.302 349.475 127.453L349.681 125.684C353.318 124.058 356.102 118.879 356.102 118.879L363.291 106.283L365.766 108.532C365.766 108.532 366.696 109.306 368.09 110.467Z" fill="black"/>
<path d="M368.09 110.235C365.115 112.267 362.621 113.982 362.133 114.342C360.801 115.325 358.26 121.12 356.621 124.078C355.316 126.458 351.075 127.07 349.475 127.221L349.681 125.452C353.318 123.826 356.102 118.647 356.102 118.647L363.291 106.05L365.766 108.292C365.766 108.292 366.696 109.058 368.09 110.235Z" fill="#DCE7FF"/>
<path d="M362.365 100.372C362.367 102.695 361.662 104.965 360.344 106.879C358.787 109.142 356.469 110.772 353.813 111.474C351.156 112.176 348.335 111.902 345.863 110.703C343.391 109.505 341.43 107.46 340.337 104.94C339.244 102.42 339.092 99.5916 339.907 96.9687C340.722 94.3457 342.45 92.1017 344.779 90.6436C347.108 89.1856 349.882 88.6102 352.599 89.0219C355.316 89.4336 357.796 90.805 359.588 92.8874C361.379 94.9698 362.365 97.6251 362.365 100.372V100.372Z" fill="#FFB0B1"/>
<path opacity="0.1" d="M382.413 138.985C380.84 138.018 379.559 136.643 378.706 135.006C378.059 133.728 377.63 132.253 376.526 131.347C375.53 130.535 374.202 130.337 372.962 129.973C368.888 128.769 365.472 125.053 365.344 120.811C365.282 118.813 365.905 116.82 365.623 114.841C365.462 113.722 365.017 112.662 364.329 111.764C363.988 111.334 363.613 110.932 363.21 110.56C362.668 110.049 362.098 109.554 361.602 109.012C361.29 108.676 361.017 108.306 360.789 107.908C360.605 107.583 360.456 107.239 360.344 106.883C359.569 104.514 360.274 101.703 359.422 99.3071L359.375 99.1754C359.054 98.3238 358.399 97.4722 357.489 97.4064C356.579 97.3406 355.8 98.0954 354.933 98.4322C353.116 99.1367 351.156 97.9367 349.642 96.7135C348.128 95.4902 346.42 94.0928 344.495 94.3638C343.22 94.5457 342.213 95.4128 341.04 95.8619C340.775 95.9644 340.501 96.0434 340.223 96.098C341.216 93.6225 343.04 91.57 345.383 90.2931C347.726 89.0161 350.441 88.5945 353.061 89.1007C355.681 89.6068 358.043 91.0091 359.741 93.0666C361.439 95.1241 362.367 97.7084 362.365 100.375C362.367 101.181 362.282 101.984 362.114 102.772C362.133 102.826 362.152 102.876 362.176 102.93C362.625 104.092 363.132 105.284 363.578 106.314L365.766 108.296C365.766 108.296 366.696 109.07 368.09 110.231C371.123 112.786 376.363 117.284 379.066 120.036C381.445 122.467 382.188 131.889 382.413 138.985Z" fill="black"/>
<path d="M340.904 88.7895C341.458 87.6631 341.733 86.4011 342.395 85.3327C343.368 83.7843 345.064 82.7933 346.807 82.1933C351.358 80.6255 360.975 78.3494 363.849 82.1933C364.414 82.9675 364.883 83.8269 365.665 84.3611C366.262 84.7675 366.982 84.9417 367.637 85.2475C369.469 86.1069 370.638 87.9805 371.262 89.8928C371.886 91.8051 372.072 93.8567 372.529 95.827C373.113 98.3548 374.14 100.751 375.162 103.132C376.367 105.942 377.645 108.857 379.969 110.843C383.141 113.552 383.842 117.389 386.786 120.362C390.272 123.892 390.159 129.718 388.362 134.344C388.126 134.951 387.859 135.586 387.952 136.233C388.044 136.879 388.525 137.468 388.978 137.982L390.883 140.131C386.375 141.219 381.274 138.865 379.175 134.735C378.528 133.457 378.098 131.986 376.99 131.077C375.999 130.264 374.667 130.07 373.431 129.706C369.356 128.498 365.94 124.778 365.812 120.536C365.751 118.542 366.374 116.549 366.091 114.574C365.934 113.447 365.487 112.38 364.794 111.478C363.729 110.088 362.121 109.155 361.254 107.607C359.786 105.017 360.901 101.653 359.844 98.8735C359.519 98.0219 358.868 97.1703 357.958 97.1045C357.048 97.0387 356.269 97.7935 355.398 98.1303C353.585 98.8348 351.625 97.6387 350.111 96.4116C348.596 95.1844 346.888 93.7909 344.959 94.0657C343.685 94.2438 342.682 95.1109 341.508 95.5638C340.641 95.8967 338.882 96.1948 338.123 95.4632C336.52 93.9883 340.234 90.1676 340.904 88.7895Z" fill="#591D4B"/>
<path opacity="0.1" d="M380.252 133.457C379.601 132.18 379.175 130.709 378.067 129.803C377.076 128.99 375.743 128.793 374.504 128.429C370.433 127.225 367.017 123.505 366.885 119.262C366.823 117.269 367.447 115.271 367.168 113.297C367.006 112.177 366.559 111.118 365.871 110.219C364.802 108.83 363.194 107.897 362.331 106.348C360.863 103.763 361.978 100.399 360.917 97.6154C360.595 96.7677 359.941 95.9161 359.034 95.8464C358.128 95.7767 357.342 96.5393 356.474 96.8761C354.662 97.5806 352.698 96.3806 351.187 95.1573C349.677 93.9341 347.961 92.5367 346.036 92.8076C344.762 92.9896 343.755 93.8567 342.585 94.3057C341.718 94.6386 339.955 94.9406 339.196 94.2089C337.6 92.6605 341.315 88.8476 341.981 87.4772C342.535 86.3469 342.81 85.0888 343.476 84.0204C343.511 83.9624 343.55 83.9043 343.588 83.8462C343.09 84.2588 342.66 84.7474 342.314 85.294C341.652 86.3624 341.377 87.6166 340.823 88.7508C340.153 90.1211 336.438 93.9457 338.038 95.4825C338.813 96.218 340.556 95.9161 341.423 95.5832C342.585 95.1302 343.6 94.2631 344.874 94.0851C346.811 93.8102 348.515 95.2077 350.025 96.4309C351.536 97.6541 353.511 98.8542 355.316 98.1496C356.184 97.8129 356.943 97.0541 357.872 97.1238C358.802 97.1935 359.422 98.0413 359.759 98.8929C360.816 101.672 359.701 105.036 361.169 107.626C362.036 109.147 363.644 110.099 364.709 111.497C365.402 112.4 365.849 113.467 366.006 114.594C366.289 116.568 365.665 118.562 365.727 120.555C365.855 124.813 369.271 128.518 373.346 129.726C374.574 130.089 375.914 130.283 376.905 131.096C378.017 132.006 378.454 133.477 379.09 134.754C381.189 138.884 386.29 141.238 390.798 140.15L389.9 139.136C385.992 139.194 382.037 136.972 380.252 133.457Z" fill="black"/>
<path opacity="0.1" d="M353.55 115.79C353.043 116.564 351.59 120.528 350.378 123.989C349.243 123.547 348.213 120.733 348.213 120.733L354.263 112.132C354.882 112.983 354.476 114.396 353.55 115.79Z" fill="black"/>
<path d="M353.782 115.558C353.275 116.332 351.823 120.296 350.61 123.756C349.475 123.319 348.445 120.501 348.445 120.501L354.495 111.903C355.115 112.751 354.708 114.168 353.782 115.558Z" fill="#DCE7FF"/>
<path d="M318.606 155.104L315.252 144.532C315.213 144.408 315.198 144.278 315.209 144.148C315.219 144.019 315.256 143.893 315.315 143.777C315.375 143.662 315.457 143.559 315.557 143.476C315.656 143.392 315.771 143.329 315.895 143.29V143.29C316.145 143.212 316.415 143.236 316.647 143.356C316.879 143.476 317.055 143.683 317.135 143.932L320.489 154.492L320.156 156.703L318.606 155.104Z" fill="#BE8B87"/>
<path opacity="0.1" d="M315.57 143.603C315.82 143.524 316.091 143.547 316.324 143.668C316.557 143.788 316.733 143.996 316.813 144.246L320.167 154.806L319.915 156.463L320.16 156.718L320.493 154.508L317.119 143.948C317.039 143.699 316.864 143.492 316.632 143.371C316.4 143.251 316.129 143.227 315.88 143.305V143.305C315.67 143.373 315.488 143.509 315.365 143.692C315.43 143.657 315.499 143.627 315.57 143.603V143.603Z" fill="white"/>
<path d="M318.606 155.104L320.489 154.508L320.214 156.319L320.156 156.718L319.606 156.145L318.606 155.104Z" fill="#EFC8C4"/>
<path d="M319.606 156.145C319.638 156.104 319.679 156.07 319.726 156.045C319.753 156.027 319.785 156.018 319.817 156.018C319.849 156.018 319.88 156.027 319.908 156.045C319.934 156.076 319.956 156.112 319.974 156.149C319.999 156.192 320.034 156.228 320.076 156.256C320.117 156.283 320.164 156.301 320.214 156.308L320.156 156.695L319.606 156.145Z" fill="#727A9C"/>
<path d="M315.233 148.287C315.233 148.287 321.961 148.248 320.376 151.109C318.792 153.97 316.317 154.314 316.317 154.314L315.233 148.287Z" fill="#FFB0B1"/>
<path d="M273.391 19.9048H273.101C261.543 19.9048 251.322 26.0171 245.442 35.0366C239.563 26.0171 229.342 19.9048 217.784 19.9048H217.494C208.82 19.9874 200.529 23.4878 194.424 29.6453C188.318 35.8028 184.89 44.1199 184.885 52.7891C184.885 63.5544 189.603 78.8294 198.802 91.3986C216.328 115.349 245.442 136.302 245.442 136.302C245.442 136.302 274.557 115.352 292.079 91.3986C301.282 78.8294 305.995 63.5544 305.995 52.7891C305.991 44.1205 302.563 35.8041 296.458 29.6467C290.354 23.4892 282.064 19.9884 273.391 19.9048V19.9048ZM269.235 93.2412C267.919 93.2362 266.635 92.8335 265.552 92.086C264.469 91.3385 263.637 90.2812 263.166 89.0527H256.256C255.801 89.0499 255.358 88.9052 254.99 88.6387C254.621 88.3722 254.345 87.9973 254.2 87.5663L252.077 81.1752L245.361 104.63C245.23 105.081 244.956 105.478 244.581 105.761C244.205 106.044 243.748 106.197 243.277 106.197H243.142C242.651 106.174 242.183 105.982 241.817 105.656C241.45 105.329 241.207 104.886 241.128 104.401L234.206 62.7956L229.148 87.4153C229.032 87.883 228.763 88.2984 228.383 88.5952C228.003 88.892 227.535 89.0531 227.053 89.0527H217.319C217.028 89.0651 216.736 89.0183 216.463 88.9152C216.19 88.8121 215.94 88.6549 215.729 88.4529C215.519 88.2509 215.351 88.0084 215.236 87.74C215.122 87.4715 215.063 87.1827 215.063 86.8908C215.063 86.5989 215.122 86.3101 215.236 86.0416C215.351 85.7731 215.519 85.5306 215.729 85.3287C215.94 85.1267 216.19 84.9694 216.463 84.8663C216.736 84.7633 217.028 84.7165 217.319 84.7288H225.348L232.514 51.6278C232.631 51.1384 232.915 50.705 233.317 50.4018C233.719 50.0985 234.214 49.9442 234.717 49.9652C235.22 49.9863 235.701 50.1813 236.076 50.5171C236.451 50.8528 236.698 51.3083 236.774 51.8058L243.843 94.2477L249.862 73.2629C249.987 72.8209 250.252 72.4313 250.617 72.1522C250.982 71.8732 251.428 71.7196 251.887 71.7145H251.93C252.385 71.7146 252.829 71.8584 253.197 72.1253C253.566 72.3922 253.841 72.7687 253.983 73.2009L257.821 84.7404H263.081C263.455 83.6049 264.135 82.5948 265.047 81.8214C265.959 81.0481 267.068 80.5416 268.25 80.358C269.431 80.1744 270.641 80.3207 271.745 80.7808C272.849 81.2409 273.804 81.9969 274.506 82.9654C275.207 83.9339 275.627 85.0771 275.719 86.269C275.811 87.4609 275.572 88.6551 275.028 89.7197C274.484 90.7844 273.656 91.6781 272.636 92.3022C271.616 92.9264 270.443 93.2567 269.247 93.2567L269.235 93.2412Z" fill="#6C63FF"/>
</g>
<defs>
<linearGradient id="paint0_linear_2_2" x1="138.012" y1="299.953" x2="138.012" y2="61.7543" gradientUnits="userSpaceOnUse">
<stop stop-color="#808080" stop-opacity="0.25"/>
<stop offset="0.54" stop-color="#808080" stop-opacity="0.12"/>
<stop offset="1" stop-color="#808080" stop-opacity="0.1"/>
</linearGradient>
<linearGradient id="paint1_linear_2_2" x1="346.04" y1="296.942" x2="346.04" y2="79.3907" gradientUnits="userSpaceOnUse">
<stop stop-color="#808080" stop-opacity="0.25"/>
<stop offset="0.54" stop-color="#808080" stop-opacity="0.12"/>
<stop offset="1" stop-color="#808080" stop-opacity="0.1"/>
</linearGradient>
<clipPath id="clip0_2_2">
<rect width="428" height="303" fill="white"/>
</clipPath>
</defs>
</svg>
