<svg width="375" height="276" viewBox="0 0 375 276" fill="none" xmlns="http://www.w3.org/2000/svg">
<g clip-path="url(#clip0_101_2)">
<path d="M348.375 276V244.659C348.375 244.659 360.575 266.878 348.375 276Z" fill="#F1F1F1"/>
<path d="M349.128 275.994L326.067 254.8C326.067 254.8 350.667 260.828 349.128 275.994Z" fill="#F1F1F1"/>
<path d="M249.5 193.213C249.449 192.64 249.524 192.062 249.72 191.52C249.916 190.978 250.228 190.486 250.635 190.079C251.041 189.671 251.532 189.357 252.073 189.16C252.613 188.963 253.191 188.886 253.764 188.937L257.921 180.951L263.385 182.297L257.355 193.491C257.207 194.45 256.713 195.32 255.967 195.939C255.22 196.557 254.273 196.879 253.305 196.845C252.336 196.811 251.414 196.422 250.713 195.753C250.012 195.084 249.581 194.18 249.5 193.213H249.5Z" fill="#FFB7B7"/>
<path d="M274.316 271.005L269.706 271.005L267.513 253.203L274.317 253.204L274.316 271.005Z" fill="#FFB7B7"/>
<path d="M275.492 275.479L260.627 275.478V275.29C260.627 273.754 261.237 272.28 262.322 271.194C263.407 270.108 264.878 269.498 266.413 269.498H266.413L275.492 269.498L275.492 275.479Z" fill="#2F2E41"/>
<path d="M311.395 267.557L306.947 268.771L300.152 252.175L306.717 250.383L311.395 267.557Z" fill="#FFB7B7"/>
<path d="M313.705 271.564L299.363 275.479L299.314 275.297C298.91 273.815 299.111 272.233 299.873 270.899C300.634 269.566 301.893 268.589 303.374 268.185L303.374 268.185L312.133 265.794L313.705 271.564Z" fill="#2F2E41"/>
<path d="M265.9 194.107L263.6 229.067L268.54 268.29L276.632 265.818L276.973 230.772L283.446 210.564L302.61 264.539L311.383 261.299L304.143 226.253L300.055 193.34L265.9 194.107Z" fill="#2F2E41"/>
<path d="M288.257 132.717L274.631 134.729L269.722 139.589L268.198 157.051L269.145 172.519L265.199 199.796C265.199 199.796 275.122 194.281 282.812 201.184C290.503 208.088 301.264 202.404 301.485 197.812L288.257 132.717Z" fill="#CBCBCB"/>
<path d="M281.338 154.618L281.338 154.598L288.107 132.51L288.194 132.504C288.676 132.473 300.025 131.803 302.563 137.413L302.575 137.44L301.804 160.394L302.866 196.345L281.877 200.896L281.724 200.929L281.338 154.618Z" fill="#2F2E41"/>
<path d="M273.837 153.091L275.078 134.366C266.247 134.916 266.38 141.184 266.39 141.458L266.294 169.467L264.525 199.431L270.956 198.949L273.837 153.091Z" fill="#2F2E41"/>
<path d="M253.923 187.163L261.763 168.946L267.236 158.886L270.093 177.034L260.173 191.93L253.923 187.163Z" fill="#2F2E41"/>
<path d="M286.326 180.46C286.446 179.897 286.688 179.367 287.035 178.907C287.382 178.448 287.825 178.07 288.334 177.8C288.842 177.531 289.403 177.376 289.978 177.347C290.553 177.318 291.127 177.416 291.66 177.633L297.985 171.231L302.809 174.13L293.749 183.046C293.325 183.918 292.597 184.604 291.701 184.974C290.806 185.344 289.806 185.373 288.891 185.054C287.976 184.735 287.209 184.092 286.736 183.245C286.264 182.399 286.118 181.408 286.326 180.46V180.46Z" fill="#FFB7B7"/>
<path d="M291.645 175.296L304.542 161.132L296.005 148.937L296.884 142.975L301.915 136.752L302.014 136.879C302.55 137.574 315.153 153.966 315.515 160.172C315.878 166.4 297.763 182.155 296.991 182.823L296.884 182.915L291.645 175.296Z" fill="#2F2E41"/>
<path d="M280.395 131.183C285.457 131.183 289.561 127.074 289.561 122.006C289.561 116.938 285.457 112.83 280.395 112.83C275.332 112.83 271.228 116.938 271.228 122.006C271.228 127.074 275.332 131.183 280.395 131.183Z" fill="#FFB7B7"/>
<path d="M289.016 114.67L289.46 113.775L287.224 112.662C287.224 112.662 284.758 108.644 280.294 109.774C275.83 110.903 273.822 111.578 273.822 111.578L271.592 112.702L272.711 113.817L270.703 114.493L272.045 115.16L270.484 116.058L271.324 120.663C271.324 120.663 272.72 117.171 275.403 118.505C278.086 119.84 282.994 117.815 282.994 117.815L287.258 126.077C287.258 126.077 288.138 123.181 289.706 123.953C289.706 123.953 293.713 117.565 289.016 114.67Z" fill="#2F2E41"/>
<path d="M185.296 166.624L45.9018 205.11L0 38.4855L139.394 3.8147e-06L185.296 166.624Z" fill="white"/>
<path d="M185.296 166.624L45.9018 205.11L0 38.4855L139.394 3.8147e-06L185.296 166.624ZM47.6828 201.969L182.159 164.841L137.613 3.14079L3.13733 40.2684L47.6828 201.969Z" fill="#F1F1F1"/>
<path d="M109.059 74.6449L74.1172 84.292C73.6243 84.4275 73.0978 84.3617 72.6533 84.1091C72.2087 83.8565 71.8825 83.4377 71.746 82.9445L62.1095 47.964C61.9742 47.4706 62.0399 46.9435 62.2923 46.4985C62.5446 46.0535 62.963 45.7268 63.4556 45.5902L98.3974 35.9431C98.8903 35.8076 99.4167 35.8734 99.8613 36.126C100.306 36.3786 100.632 36.7975 100.769 37.2906L110.405 72.2711C110.54 72.7645 110.475 73.2916 110.222 73.7366C109.97 74.1816 109.552 74.5083 109.059 74.6449V74.6449ZM63.6606 46.3345C63.365 46.4165 63.114 46.6124 62.9626 46.8795C62.8111 47.1465 62.7717 47.4627 62.8529 47.7588L72.4894 82.7393C72.5713 83.0352 72.767 83.2865 73.0338 83.438C73.3005 83.5896 73.6164 83.6291 73.9121 83.5478L108.854 73.9007C109.149 73.8187 109.4 73.6227 109.552 73.3557C109.703 73.0887 109.743 72.7724 109.662 72.4764L100.025 37.4959C99.9432 37.2 99.7474 36.9487 99.4807 36.7971C99.214 36.6456 98.8981 36.6061 98.6023 36.6874L63.6606 46.3345Z" fill="#E5E5E5"/>
<path d="M100.201 81.6954L65.2596 91.3425C64.816 91.4645 64.3422 91.4053 63.9421 91.1779C63.542 90.9506 63.2484 90.5736 63.1256 90.1298L53.4891 55.1493C53.3673 54.7052 53.4264 54.2308 53.6535 53.8303C53.8806 53.4298 54.2571 53.1358 54.7005 53.0129L89.6423 43.3657C90.0859 43.2438 90.5597 43.303 90.9598 43.5304C91.3599 43.7577 91.6535 44.1347 91.7763 44.5785L101.413 79.559C101.535 80.0031 101.475 80.4774 101.248 80.878C101.021 81.2785 100.645 81.5725 100.201 81.6954V81.6954Z" fill="#6C63FF"/>
<path d="M140.68 86.4708L43.1709 113.392L44.2101 117.164L141.719 90.2431L140.68 86.4708Z" fill="#F1F1F1"/>
<path d="M143.389 96.3063L45.8804 123.228L46.9196 127L144.428 100.079L143.389 96.3063Z" fill="#F1F1F1"/>
<path d="M146.099 106.142L48.5898 133.063L49.629 136.835L147.138 109.914L146.099 106.142Z" fill="#F1F1F1"/>
<path d="M150.867 123.452L53.3585 150.373L54.3977 154.146L151.907 127.224L150.867 123.452Z" fill="#F1F1F1"/>
<path d="M153.577 133.288L56.068 160.209L57.1072 163.981L154.616 137.06L153.577 133.288Z" fill="#F1F1F1"/>
<path d="M156.286 143.123L58.7775 170.044L59.8167 173.817L157.326 146.895L156.286 143.123Z" fill="#F1F1F1"/>
<path d="M229.917 204.553H85.319V31.7085H229.917V204.553Z" fill="white"/>
<path d="M229.917 204.553H85.319V31.7085H229.917V204.553ZM87.8699 201.999H227.366V34.2622H87.8699V201.999Z" fill="#E5E5E5"/>
<path d="M203.59 106.012H120.918V109.925H203.59V106.012Z" fill="#6C63FF"/>
<path d="M203.59 116.186H120.918V120.099H203.59V116.186Z" fill="#6C63FF"/>
<path d="M203.59 126.36H120.918V130.273H203.59V126.36Z" fill="#6C63FF"/>
<path d="M114.197 111.096C115.605 111.096 116.748 109.952 116.748 108.542C116.748 107.132 115.605 105.988 114.197 105.988C112.788 105.988 111.646 107.132 111.646 108.542C111.646 109.952 112.788 111.096 114.197 111.096Z" fill="#6C63FF"/>
<path d="M203.59 62.1726H120.918V66.0856H203.59V62.1726Z" fill="#E5E5E5"/>
<path d="M203.59 72.3466H120.918V76.2597H203.59V72.3466Z" fill="#E5E5E5"/>
<path d="M203.59 82.5206H120.918V86.4337H203.59V82.5206Z" fill="#E5E5E5"/>
<path d="M114.197 66.8305C115.605 66.8305 116.748 65.6872 116.748 64.2768C116.748 62.8664 115.605 61.723 114.197 61.723C112.788 61.723 111.646 62.8664 111.646 64.2768C111.646 65.6872 112.788 66.8305 114.197 66.8305Z" fill="#E5E5E5"/>
<path d="M203.59 150.277H120.918V154.191H203.59V150.277Z" fill="#E5E5E5"/>
<path d="M203.59 160.451H120.918V164.365H203.59V160.451Z" fill="#E5E5E5"/>
<path d="M203.59 170.625H120.918V174.539H203.59V170.625Z" fill="#E5E5E5"/>
<path d="M114.197 154.935C115.605 154.935 116.748 153.792 116.748 152.382C116.748 150.971 115.605 149.828 114.197 149.828C112.788 149.828 111.646 150.971 111.646 152.382C111.646 153.792 112.788 154.935 114.197 154.935Z" fill="#E5E5E5"/>
<path d="M223.166 219.437C239.489 219.437 252.721 206.19 252.721 189.849C252.721 173.508 239.489 160.262 223.166 160.262C206.843 160.262 193.611 173.508 193.611 189.849C193.611 206.19 206.843 219.437 223.166 219.437Z" fill="#D8273C"/>
<path d="M211.053 178.053C211.487 177.62 212.075 177.376 212.688 177.376C213.301 177.376 213.889 177.62 214.323 178.053L222.5 186.23L230.677 178.053C231.113 177.632 231.697 177.399 232.304 177.404C232.91 177.409 233.49 177.653 233.919 178.081C234.347 178.51 234.591 179.09 234.596 179.696C234.601 180.303 234.368 180.887 233.947 181.323L225.77 189.5L233.947 197.677C234.368 198.113 234.601 198.697 234.596 199.304C234.591 199.91 234.347 200.49 233.919 200.919C233.49 201.347 232.91 201.591 232.304 201.596C231.697 201.601 231.113 201.368 230.677 200.947L222.5 192.77L214.323 200.947C213.887 201.368 213.303 201.601 212.696 201.596C212.09 201.591 211.51 201.347 211.081 200.919C210.653 200.49 210.409 199.91 210.404 199.304C210.399 198.697 210.632 198.113 211.053 197.677L219.23 189.5L211.053 181.323C210.62 180.889 210.376 180.301 210.376 179.688C210.376 179.075 210.62 178.487 211.053 178.053V178.053Z" fill="#FFF3F3"/>
<path d="M374.567 275.824H209.684C209.569 275.824 209.459 275.778 209.378 275.697C209.297 275.616 209.251 275.506 209.251 275.391C209.251 275.276 209.297 275.166 209.378 275.084C209.459 275.003 209.569 274.958 209.684 274.958H374.567C374.682 274.958 374.792 275.003 374.873 275.084C374.954 275.166 375 275.276 375 275.391C375 275.506 374.954 275.616 374.873 275.697C374.792 275.778 374.682 275.824 374.567 275.824Z" fill="#CBCBCB"/>
<g clip-path="url(#clip1_101_2)">
<path d="M282.62 98.2724L284.226 99.0388L287.966 92.8543L285.074 91.4746L282.62 98.2724Z" fill="white"/>
<path d="M281.921 101.805C282.604 102.131 283.419 101.848 283.74 101.174C284.062 100.499 283.769 99.6885 283.086 99.3626C282.403 99.0366 281.588 99.3191 281.266 99.9935C280.944 100.668 281.237 101.479 281.921 101.805Z" fill="white"/>
<path d="M291.204 94.4187C289.286 93.642 287.8 94.2349 286.808 96.1086L288.688 97.0054C289.018 96.3543 289.641 96.0402 290.354 96.2818C291.06 96.5394 291.626 97.0067 291.604 97.5485C291.575 98.1463 290.833 98.5024 290.493 98.6361C289.861 98.8867 289.025 98.9022 288.458 99.2232C287.891 99.5443 287.527 100.14 287.127 100.896L288.782 101.686C289.036 101.195 289.29 100.745 289.661 100.547C290.268 100.225 290.922 100.26 291.563 100.073C292.173 99.9108 292.854 99.6832 293.255 99.007C294.501 97.0569 293.273 95.2483 291.204 94.4187" fill="white"/>
<path d="M286.661 104.066C287.237 104.341 287.925 104.104 288.195 103.536C288.466 102.968 288.218 102.284 287.642 102.009C287.065 101.734 286.378 101.971 286.107 102.539C285.836 103.107 286.084 103.791 286.661 104.066Z" fill="white"/>
</g>
</g>
<defs>
<clipPath id="clip0_101_2">
<rect width="375" height="276" fill="white"/>
</clipPath>
<clipPath id="clip1_101_2">
<rect width="11.3931" height="11.3931" fill="white" transform="translate(284.906 91) rotate(25.5038)"/>
</clipPath>
</defs>
</svg>
