<svg width="301" height="301" viewBox="0 0 301 301" fill="none" xmlns="http://www.w3.org/2000/svg">
<path d="M301 230.205H0V230.355H301V230.205Z" fill="#EBEBEB"/>
<path d="M104.278 234.046H90.3241V234.196H104.278V234.046Z" fill="#EBEBEB"/>
<path d="M276.18 237.272H242.064V237.423H276.18V237.272Z" fill="#EBEBEB"/>
<path d="M59.8328 237.272H25.7174V237.423H59.8328V237.272Z" fill="#EBEBEB"/>
<path d="M142.674 203.356H26.4338C25.5232 203.354 24.6504 202.991 24.0071 202.347C23.3637 201.702 23.0024 200.829 23.0024 199.918V36.5173C23.0103 35.6119 23.3752 34.7462 24.0176 34.1082C24.6601 33.4703 25.5284 33.1116 26.4338 33.11H142.674C143.586 33.11 144.46 33.4722 145.105 34.1168C145.749 34.7614 146.111 35.6358 146.111 36.5474V36.5474V199.918C146.111 200.83 145.749 201.704 145.105 202.349C144.46 202.993 143.586 203.356 142.674 203.356V203.356ZM26.4338 33.2304C25.5631 33.232 24.7286 33.579 24.1135 34.1952C23.4984 34.8115 23.1529 35.6466 23.1529 36.5173V199.918C23.1529 200.789 23.4984 201.624 24.1135 202.24C24.7286 202.856 25.5631 203.203 26.4338 203.205H142.674C143.545 203.202 144.379 202.855 144.995 202.239C145.61 201.623 145.958 200.789 145.961 199.918V36.5173C145.958 35.6466 145.61 34.8124 144.995 34.1966C144.379 33.5809 143.545 33.2336 142.674 33.2304H26.4338Z" fill="#EBEBEB"/>
<path d="M272.893 203.356H156.646C155.736 203.352 154.863 202.989 154.219 202.345C153.575 201.701 153.212 200.829 153.209 199.918V36.5173C153.218 35.6114 153.585 34.7457 154.228 34.1079C154.872 33.4701 155.74 33.1115 156.646 33.11H272.893C273.797 33.1131 274.664 33.4726 275.305 34.1104C275.946 34.7482 276.31 35.613 276.318 36.5173V199.918C276.319 200.369 276.231 200.815 276.059 201.232C275.887 201.648 275.635 202.027 275.317 202.346C274.999 202.665 274.621 202.919 274.205 203.092C273.789 203.265 273.343 203.355 272.893 203.356V203.356ZM156.646 33.2304C155.776 33.2336 154.941 33.5809 154.326 34.1966C153.71 34.8124 153.363 35.6466 153.359 36.5173V199.918C153.363 200.789 153.71 201.623 154.326 202.239C154.941 202.855 155.776 203.202 156.646 203.205H272.893C273.763 203.202 274.598 202.855 275.213 202.239C275.829 201.623 276.176 200.789 276.18 199.918V36.5173C276.176 35.6466 275.829 34.8124 275.213 34.1966C274.598 33.5809 273.763 33.2336 272.893 33.2304H156.646Z" fill="#EBEBEB"/>
<path d="M128.924 145.461H44.1808V230.205H128.924V145.461Z" fill="#E0E0E0"/>
<path d="M113.886 145.461H36.0598V230.205H113.886V145.461Z" fill="#EBEBEB"/>
<path d="M110.654 150.049H39.1962V173.189H110.654V150.049Z" fill="#F5F5F5"/>
<path d="M110.654 176.831H39.1962V199.972H110.654V176.831Z" fill="#F5F5F5"/>
<path d="M110.654 202.483H39.1962V225.624H110.654V202.483Z" fill="#F5F5F5"/>
<path d="M75.6834 160.337C75.6834 160.837 75.5352 161.326 75.2573 161.741C74.9795 162.157 74.5846 162.481 74.1226 162.673C73.6606 162.864 73.1522 162.914 72.6618 162.816C72.1713 162.719 71.7208 162.478 71.3672 162.125C71.0136 161.771 70.7728 161.32 70.6752 160.83C70.5777 160.339 70.6277 159.831 70.8191 159.369C71.0105 158.907 71.3346 158.512 71.7503 158.234C72.1661 157.957 72.655 157.808 73.155 157.808C73.8256 157.808 74.4687 158.075 74.9429 158.549C75.4171 159.023 75.6834 159.666 75.6834 160.337Z" fill="#FAFAFA"/>
<path d="M74.9731 211.711C74.9731 212.069 74.8672 212.418 74.6687 212.715C74.4703 213.012 74.1882 213.243 73.8582 213.38C73.5282 213.517 73.1651 213.552 72.8148 213.483C72.4644 213.413 72.1426 213.241 71.8901 212.988C71.6375 212.736 71.4655 212.414 71.3958 212.064C71.3261 211.713 71.3619 211.35 71.4986 211.02C71.6353 210.69 71.8667 210.408 72.1637 210.21C72.4607 210.011 72.8099 209.905 73.1671 209.905C73.6461 209.905 74.1054 210.096 74.4441 210.434C74.7828 210.773 74.9731 211.232 74.9731 211.711V211.711Z" fill="#FAFAFA"/>
<path d="M74.9731 188.053C74.9731 188.41 74.8672 188.759 74.6687 189.056C74.4703 189.353 74.1882 189.585 73.8582 189.721C73.5282 189.858 73.1651 189.894 72.8148 189.824C72.4644 189.754 72.1426 189.582 71.8901 189.33C71.6375 189.077 71.4655 188.755 71.3958 188.405C71.3261 188.055 71.3619 187.692 71.4986 187.362C71.6353 187.032 71.8667 186.75 72.1637 186.551C72.4607 186.353 72.8099 186.247 73.1671 186.247C73.6461 186.247 74.1054 186.437 74.4441 186.776C74.7828 187.114 74.9731 187.574 74.9731 188.053Z" fill="#FAFAFA"/>
<path d="M139.52 41.3514H40.9962V106.289H139.52V41.3514Z" fill="#E0E0E0"/>
<path d="M137.617 41.3514H39.0939V106.289H137.617V41.3514Z" fill="#F0F0F0"/>
<path d="M133.993 44.4457H41.9233V103.707H133.993V44.4457Z" fill="#FAFAFA"/>
<path d="M130.887 45.2885L104.694 103.707H93.9301L119.124 45.2885H130.887Z" fill="white"/>
<path d="M109.426 45.2885L82.8232 103.707H70.2052L98.0176 45.2885H109.426Z" fill="white"/>
<path d="M139.387 41.3514H39.0939V45.2885H139.387V41.3514Z" fill="#E0E0E0"/>
<path d="M139.387 46.3058H39.0939V50.2429H139.387V46.3058Z" fill="#E0E0E0"/>
<path d="M139.387 51.2603H39.0939V55.1974H139.387V51.2603Z" fill="#E0E0E0"/>
<path d="M139.387 56.2087H39.0939V60.1458H139.387V56.2087Z" fill="#E0E0E0"/>
<path d="M139.387 61.1632H39.0939V65.1003H139.387V61.1632Z" fill="#E0E0E0"/>
<path d="M142.379 106.289H36.9447V111.189H142.379V106.289Z" fill="#E0E0E0"/>
<path d="M264.38 179.745V230.205H246.549L245.598 225.154H176.314V179.745H264.38Z" fill="#E0E0E0"/>
<path d="M252.166 179.745V230.205H246.549L245.598 225.154H174.935L173.815 230.205H164.099V179.745H252.166Z" fill="#EBEBEB"/>
<path d="M247.199 183.285H168.572V200.671H247.199V183.285Z" stroke="#FAFAFA" stroke-miterlimit="10"/>
<path d="M247.199 204.132H168.572V221.693H247.199V204.132Z" stroke="#FAFAFA" stroke-miterlimit="10"/>
<path d="M262.797 38.7869H227.442V86.6037H262.797V38.7869Z" fill="#E0E0E0"/>
<path d="M261.027 38.7568H225.672V86.5736H261.027V38.7568Z" fill="#E6E6E6"/>
<path d="M259.191 40.5507H227.442V84.8519H259.191V40.5507Z" fill="#FAFAFA"/>
<path d="M255.952 75.238H231.686V76.2734H255.952V75.238Z" fill="#E0E0E0"/>
<path d="M255.952 77.8807H231.686V78.9162H255.952V77.8807Z" fill="#E0E0E0"/>
<path d="M255.952 80.5235H231.686V81.559H255.952V80.5235Z" fill="#E0E0E0"/>
<path d="M252.485 56.9372C252.485 58.65 251.977 60.3244 251.026 61.7487C250.074 63.173 248.722 64.2833 247.14 64.9394C245.558 65.5954 243.817 65.7676 242.136 65.4344C240.456 65.1011 238.913 64.2772 237.701 63.0669C236.489 61.8566 235.663 60.3142 235.327 58.6345C234.992 56.9549 235.161 55.2135 235.815 53.6304C236.469 52.0473 237.577 50.6935 239 49.7402C240.423 48.7868 242.097 48.2768 243.81 48.2744C244.949 48.2728 246.076 48.4957 247.129 48.9303C248.181 49.365 249.138 50.0028 249.943 50.8074C250.749 51.612 251.388 52.5675 251.824 53.6193C252.26 54.6711 252.485 55.7985 252.485 56.9372V56.9372Z" stroke="#E0E0E0" stroke-miterlimit="10"/>
<path d="M248.957 98.9507H218.767V129.141H248.957V98.9507Z" fill="#E0E0E0"/>
<path d="M246.375 98.9507H216.184V129.141H246.375V98.9507Z" fill="#EBEBEB"/>
<path d="M244.292 101.04H218.273V127.058H244.292V101.04Z" fill="#FAFAFA"/>
<path d="M238.181 107.144H224.383V120.942H238.181V107.144Z" fill="#E0E0E0"/>
<path d="M149.344 272.531C204.921 272.531 249.974 269.125 249.974 264.922C249.974 260.72 204.921 257.313 149.344 257.313C93.7676 257.313 48.7138 260.72 48.7138 264.922C48.7138 269.125 93.7676 272.531 149.344 272.531Z" fill="#F5F5F5"/>
<path d="M96.621 224.672H59.586V266.469H96.621V224.672Z" fill="#6C63FF"/>
<path d="M115.139 224.672H78.1035V266.469H115.139V224.672Z" fill="#6C63FF"/>
<path opacity="0.7" d="M96.621 224.672H59.586V266.469H96.621V224.672Z" fill="white"/>
<path opacity="0.2" d="M115.133 224.672H96.5789V266.469H115.133V224.672Z" fill="white"/>
<path d="M105.468 253.915C108.071 253.854 110.095 250.162 109.99 245.668C109.885 241.174 107.69 237.58 105.087 237.641C102.485 237.702 100.46 241.394 100.565 245.888C100.67 250.382 102.865 253.976 105.468 253.915Z" fill="white"/>
<path d="M108.119 244.406L106.109 244.454L106.03 241.047L104.477 241.083L104.555 244.49L102.346 244.544L102.406 247.199L104.616 247.145L104.7 250.522L106.253 250.486L106.175 247.109L108.185 247.061L108.119 244.406Z" fill="#6C63FF"/>
<path d="M82.6125 224.672H75.1115V232.173H82.6125V224.672Z" fill="#F5F5F5"/>
<path d="M82.6125 239.656H75.1115V266.469H82.6125V239.656Z" fill="#F5F5F5"/>
<path d="M108.486 190.389H78.1035V224.684H108.486V190.389Z" fill="#6C63FF"/>
<path d="M123.681 190.389H93.298V224.684H123.681V190.389Z" fill="#6C63FF"/>
<path opacity="0.7" d="M103.749 190.389H78.1035V224.684H103.749V190.389Z" fill="white"/>
<path opacity="0.2" d="M123.681 190.389H103.749V224.684H123.681V190.389Z" fill="white"/>
<path d="M117.577 207.624C117.667 211.308 116.005 214.342 113.868 214.39C111.731 214.438 109.931 211.489 109.847 207.804C109.763 204.12 111.424 201.068 113.555 201.068C115.686 201.068 117.492 203.934 117.577 207.624Z" fill="white"/>
<path d="M116.06 206.582L114.41 206.618L114.344 203.819L113.068 203.849L113.134 206.649L111.316 206.691L111.37 208.87L113.182 208.828L113.248 211.603L114.524 211.567L114.458 208.798L116.108 208.762L116.06 206.582Z" fill="#6C63FF"/>
<path d="M90.8418 190.389H84.6833V224.684H90.8418V190.389Z" fill="#F5F5F5"/>
<path d="M143.511 143.938C143.511 143.938 134.643 185.934 133.879 199.864C133.114 213.794 136.75 248.801 136.75 248.801L148.08 250.607L150.241 205.932L155.208 171.877C155.208 171.877 160.409 199.569 162.648 206.053C164.888 212.536 175.573 231.337 184.399 246.356L191.984 240.8C191.984 240.8 177.807 200.261 175.387 192.345C172.967 184.429 174.604 150.867 167.139 141.338L143.511 143.938Z" fill="#6C63FF"/>
<path opacity="0.4" d="M143.511 143.938C143.511 143.938 134.643 185.934 133.879 199.864C133.114 213.794 136.75 248.801 136.75 248.801L148.08 250.607L150.241 205.932L155.208 171.877C155.208 171.877 160.409 199.569 162.648 206.053C164.888 212.536 175.573 231.337 184.399 246.356L191.984 240.8C191.984 240.8 177.807 200.261 175.387 192.345C172.967 184.429 174.604 150.867 167.139 141.338L143.511 143.938Z" fill="white"/>
<path d="M145.618 260.425C145.564 260.762 139.688 259.486 139.688 259.486L139.291 253.683L139.134 251.407L145.154 250.878C145.154 250.878 145.257 252.611 145.365 254.598C145.485 257.199 145.684 260.227 145.618 260.425Z" fill="#B55B52"/>
<path opacity="0.2" d="M145.341 254.598L139.291 253.683L139.134 251.407L145.154 250.878C145.154 250.878 145.232 252.611 145.341 254.598Z" fill="black"/>
<path d="M135.384 261.527L135.143 261.196C135.071 261.093 133.337 258.667 133.59 257.475C133.613 257.36 133.662 257.25 133.733 257.156C133.804 257.061 133.895 256.983 133.999 256.928C134.085 256.876 134.182 256.849 134.282 256.849C134.382 256.849 134.48 256.876 134.565 256.928C135.426 257.451 135.396 260.75 135.39 261.142L135.384 261.527ZM134.3 257.12C134.239 257.122 134.179 257.139 134.126 257.168C134.057 257.207 133.997 257.259 133.951 257.323C133.904 257.386 133.871 257.459 133.855 257.536C133.668 258.354 134.643 259.944 135.119 260.678C135.119 259.516 134.962 257.481 134.427 257.156C134.389 257.133 134.345 257.12 134.3 257.12V257.12Z" fill="#6C63FF"/>
<path d="M134.776 261.563L134.427 261.419C134.053 261.268 130.778 259.901 130.574 258.728C130.555 258.608 130.568 258.486 130.611 258.373C130.655 258.26 130.727 258.16 130.821 258.083C130.919 257.992 131.039 257.924 131.168 257.888C131.298 257.851 131.435 257.846 131.567 257.873C132.891 258.101 134.529 261.099 134.577 261.226L134.776 261.563ZM131.399 258.126C131.252 258.126 131.111 258.184 131.007 258.288C130.946 258.333 130.898 258.394 130.87 258.464C130.841 258.534 130.832 258.611 130.845 258.685C130.977 259.456 133.024 260.491 134.156 261.009C133.686 260.208 132.47 258.306 131.519 258.138L131.399 258.126Z" fill="#6C63FF"/>
<path d="M145.425 260.1L139.345 259.143C138.967 259.083 138.581 259.167 138.261 259.378C136.851 260.329 135.265 260.989 133.596 261.316C130.995 261.683 128.683 261.172 128.467 261.918C128.344 262.403 128.387 262.916 128.59 263.373C128.793 263.83 129.144 264.206 129.586 264.441C130.441 264.886 140.916 266.511 145.335 267.186C145.566 267.22 145.802 267.202 146.025 267.132C146.249 267.062 146.453 266.942 146.623 266.782C146.793 266.621 146.924 266.424 147.007 266.205C147.089 265.986 147.12 265.751 147.099 265.518L146.719 261.485C146.687 261.143 146.542 260.823 146.308 260.572C146.074 260.322 145.763 260.156 145.425 260.1V260.1Z" fill="#222221"/>
<path d="M135.251 247.41L136.203 252.419L148.604 253.599L148.971 248.53L135.251 247.41Z" fill="#6C63FF"/>
<path d="M195.794 247.085C195.963 247.386 190.569 250.041 190.569 250.041L186.993 246.11L185.121 244.045L187.023 242.239L189.492 239.909C189.492 239.909 189.744 240.198 190.16 240.656L192.351 243.124C193.976 244.966 195.71 246.934 195.794 247.085Z" fill="#B55B52"/>
<path opacity="0.2" d="M192.351 243.13L186.993 246.11L185.121 244.045L187.023 242.239L190.16 240.656L192.351 243.13Z" fill="black"/>
<path d="M188.817 252.443L188.504 252.298C188.39 252.25 185.747 251.04 185.494 249.975C185.471 249.868 185.474 249.758 185.504 249.653C185.533 249.548 185.588 249.451 185.663 249.373C185.743 249.269 185.85 249.189 185.972 249.141C186.093 249.092 186.226 249.076 186.355 249.096C187.427 249.27 188.54 251.841 188.667 252.136L188.817 252.443ZM186.259 249.348C186.186 249.35 186.115 249.369 186.05 249.402C185.985 249.435 185.929 249.483 185.886 249.541C185.838 249.59 185.803 249.651 185.785 249.717C185.767 249.784 185.767 249.854 185.783 249.92C185.928 250.595 187.421 251.461 188.282 251.895C187.866 251.004 187.011 249.487 186.331 249.354L186.259 249.348Z" fill="#6C63FF"/>
<path d="M184.856 253.707C184.314 253.763 183.77 253.625 183.321 253.316C183.207 253.201 183.128 253.057 183.093 252.899C183.058 252.741 183.068 252.577 183.122 252.425C183.165 252.238 183.25 252.065 183.373 251.918C183.495 251.772 183.651 251.656 183.827 251.582C185.398 250.871 188.908 252.659 189.058 252.738L189.359 252.894L189.034 252.991C187.673 253.388 186.271 253.628 184.856 253.707ZM184.742 251.684C184.466 251.675 184.191 251.724 183.935 251.829C183.798 251.887 183.676 251.978 183.581 252.093C183.486 252.209 183.419 252.345 183.387 252.491C183.351 252.593 183.344 252.702 183.365 252.808C183.386 252.914 183.435 253.013 183.508 253.093C184.23 253.791 187.174 253.183 188.613 252.798C187.878 252.479 186.018 251.684 184.742 251.684Z" fill="#6C63FF"/>
<path d="M195.445 246.868L190.087 249.878C189.753 250.063 189.501 250.369 189.383 250.733C188.87 252.354 188.034 253.855 186.927 255.146C185.121 257.054 182.99 258.089 183.285 258.806C183.488 259.263 183.839 259.638 184.281 259.871C184.724 260.103 185.232 260.18 185.723 260.088C186.668 259.908 195.891 254.67 199.774 252.467C199.977 252.35 200.152 252.189 200.283 251.995C200.415 251.801 200.501 251.579 200.534 251.347C200.567 251.114 200.547 250.878 200.474 250.654C200.402 250.431 200.28 250.228 200.117 250.059L197.317 247.127C197.077 246.884 196.764 246.727 196.425 246.68C196.087 246.633 195.742 246.699 195.445 246.868V246.868Z" fill="#222221"/>
<path d="M179.938 243.768L183.797 247.115L194.253 240.336L191.394 236.135L179.938 243.768Z" fill="#6C63FF"/>
<path d="M156.087 91.504C156.418 91.3174 163.311 91.0043 169.933 92.395C176.555 93.7856 164.755 101.931 164.755 101.931L161.059 116.728L154.287 116.788L153.468 95.7782L156.087 91.504Z" fill="#EBEBEB"/>
<path d="M169.927 92.413L155.563 115.078L157.152 91.3114C157.152 91.3114 151.933 91.4438 150.313 91.9134C148.694 92.3829 147.303 96.1635 146.142 101.341C144.98 106.518 143.216 118.931 143.216 118.931L134.962 188.161C134.962 188.161 163.178 194.181 176.47 189.504C176.47 189.504 171.474 127.323 172.298 123.482C173.123 119.641 175.79 105.591 175.79 105.591C175.79 105.591 179.486 98.5775 177.879 96.5126C176.272 94.4478 169.927 92.413 169.927 92.413Z" fill="#6C63FF"/>
<path d="M152.992 136.022L155.039 190.96" stroke="white" stroke-width="0.75" stroke-linecap="round" stroke-linejoin="round"/>
<path d="M151.248 93.0926L101.452 110.064L113.994 146.863L163.79 129.891L151.248 93.0926Z" fill="#6C63FF"/>
<path d="M151.246 93.0933L113.989 146.864L106.993 143.691L94.4538 106.897L144.251 89.9268L151.246 93.0933Z" fill="#6C63FF"/>
<path opacity="0.7" d="M151.246 93.0933L101.449 110.064L113.989 146.864L106.993 143.691L94.4538 106.897L144.251 89.9268L151.246 93.0933Z" fill="white"/>
<path opacity="0.46" d="M151.248 93.0926L101.452 110.064L113.994 146.863L163.79 129.891L151.248 93.0926Z" fill="white"/>
<path d="M140.595 130.866C146.598 125.954 147.483 117.105 142.571 111.102C137.659 105.099 128.811 104.214 122.807 109.126C116.804 114.037 115.919 122.886 120.831 128.889C125.743 134.893 134.591 135.777 140.595 130.866Z" fill="#FAFAFA"/>
<path d="M140.134 115.126L134.409 116.999L132.566 111.376L128.142 112.827L129.984 118.45L123.687 120.508L125.114 124.885L131.417 122.82L133.241 128.395L137.665 126.944L135.841 121.369L141.566 119.497L140.134 115.126Z" fill="#6C63FF"/>
<path d="M157.122 62.0903V53.3312C157.122 53.3312 166.712 49.0148 175.88 57.8281L171.666 66.3284L157.122 62.0903Z" fill="#6C63FF"/>
<path d="M166.333 54.6137L165.246 54.3992L164.589 57.7242L165.676 57.9388L166.333 54.6137Z" fill="white"/>
<path d="M163.919 55.2938L163.704 56.3804L167.029 57.037L167.244 55.9503L163.919 55.2938Z" fill="white"/>
<path d="M170.968 78.26C169.216 80.7824 167.609 80.4332 167.609 80.4332C167.082 81.391 166.396 82.2521 165.58 82.9797C165.291 90.8478 167.609 92.9729 167.609 92.9729C165.201 96.6872 162.227 96.5849 159.217 95.5013C156.207 94.4177 156.05 92.0578 156.05 92.0578C158.771 90.7214 158.808 88.6264 158.416 87.1937C158.26 86.6391 158.03 86.1085 157.73 85.6164C152.619 84.2138 151.144 79.3135 151.493 74.6901C151.709 71.8859 152.397 69.1383 153.528 66.5631L156.538 62.006L168.307 64.414L168.939 70.6507L166.531 75.2741C170.775 72.1377 172.738 75.7075 170.968 78.26Z" fill="#B55B52"/>
<path d="M157.122 78.1998C156.836 78.2014 156.55 78.1812 156.267 78.1396C156.24 78.1349 156.214 78.1248 156.19 78.11C156.167 78.0951 156.147 78.0759 156.131 78.0532C156.115 78.0306 156.104 78.005 156.098 77.978C156.092 77.951 156.091 77.9231 156.096 77.8958C156.1 77.8685 156.11 77.8424 156.125 77.8191C156.14 77.7957 156.159 77.7754 156.182 77.7595C156.205 77.7436 156.23 77.7323 156.257 77.7262C156.284 77.7201 156.312 77.7195 156.339 77.7242C156.339 77.7242 159.349 78.248 160.644 76.0206C160.658 75.9964 160.676 75.9753 160.698 75.9583C160.72 75.9413 160.745 75.9288 160.772 75.9216C160.799 75.9143 160.827 75.9124 160.854 75.916C160.882 75.9195 160.909 75.9285 160.933 75.9423C160.957 75.9561 160.978 75.9746 160.995 75.9966C161.012 76.0186 161.024 76.0437 161.032 76.0706C161.039 76.0974 161.041 76.1254 161.037 76.153C161.034 76.1805 161.025 76.2071 161.011 76.2313C160.018 77.9289 158.182 78.1998 157.122 78.1998Z" fill="#263238"/>
<path d="M156.297 75.4487C156.424 75.4487 156.935 71.6079 156.935 71.6079L154.202 74.8948C154.484 75.1444 154.82 75.3245 155.184 75.4207C155.548 75.5169 155.929 75.5265 156.297 75.4487Z" fill="#A02724"/>
<path d="M160.529 71.6862C160.463 72.1617 160.168 72.5169 159.873 72.4748C159.578 72.4326 159.392 72.0112 159.458 71.5357C159.524 71.0601 159.819 70.6989 160.114 70.741C160.409 70.7832 160.596 71.2046 160.529 71.6862Z" fill="#263238"/>
<path d="M154.714 71.1564C154.648 71.632 154.353 71.9872 154.058 71.945C153.763 71.9029 153.576 71.4875 153.642 71.0059C153.709 70.5243 154.004 70.1751 154.299 70.2173C154.594 70.2594 154.81 70.6748 154.714 71.1564Z" fill="#263238"/>
<path d="M162.889 69.531C162.836 69.5304 162.784 69.5148 162.739 69.4861C162.695 69.4573 162.659 69.4166 162.636 69.3685C161.92 67.8454 160.909 68.0441 160.866 68.0501C160.797 68.0605 160.725 68.0443 160.667 68.0048C160.608 67.9653 160.566 67.9054 160.55 67.8367C160.533 67.768 160.543 67.6956 160.577 67.6337C160.611 67.5719 160.667 67.525 160.734 67.5023C160.794 67.5023 162.227 67.1651 163.142 69.1277C163.158 69.1616 163.167 69.1984 163.169 69.236C163.171 69.2735 163.165 69.311 163.152 69.3463C163.139 69.3816 163.12 69.414 163.094 69.4416C163.069 69.4692 163.038 69.4914 163.004 69.5069C162.968 69.5232 162.929 69.5314 162.889 69.531V69.531Z" fill="#263238"/>
<path d="M152.866 68.5196C152.83 68.5199 152.795 68.5132 152.762 68.4997C152.729 68.4863 152.699 68.4665 152.673 68.4414C152.647 68.4156 152.626 68.3847 152.611 68.3506C152.597 68.3164 152.589 68.2798 152.589 68.2427C152.589 68.2057 152.597 68.169 152.611 68.1349C152.626 68.1008 152.647 68.0699 152.673 68.0441C152.745 67.9718 154.359 66.3223 156.394 67.135C156.428 67.1484 156.46 67.1685 156.487 67.1942C156.514 67.2199 156.536 67.2507 156.551 67.2848C156.566 67.3189 156.575 67.3557 156.575 67.3931C156.576 67.4304 156.57 67.4675 156.556 67.5023C156.527 67.572 156.471 67.6275 156.401 67.6568C156.332 67.686 156.253 67.6868 156.183 67.6588C154.491 66.9845 153.101 68.4173 153.083 68.4354C153.055 68.465 153.022 68.488 152.984 68.5026C152.946 68.5172 152.906 68.523 152.866 68.5196V68.5196Z" fill="#263238"/>
<path opacity="0.2" d="M160.355 85.2974C159.884 86.0728 159.223 86.7151 158.434 87.1636C158.279 86.609 158.048 86.0784 157.748 85.5863C158.628 85.6712 159.515 85.5728 160.355 85.2974V85.2974Z" fill="black"/>
<path d="M167.747 64.9438C167.747 64.9438 157.592 67.6588 153.546 66.22C149.501 64.7812 150.915 59.8087 151.463 59.3391C152.21 58.701 153.835 61.3378 153.835 61.3378C153.835 61.3378 152.505 58.5144 153.546 57.8943C154.588 57.2743 154.75 61.5063 158.543 61.0609C162.335 60.6154 172.846 57.7559 173.466 64.3658C173.838 68.3259 173.198 72.3155 171.606 75.9604C171.606 75.9604 171.046 72.3484 166.573 75.2199C166.573 75.2199 165.086 74.1604 166.573 72.7035C169.162 70.1812 168.259 66.8641 167.747 64.9438Z" fill="#263238"/>
<path d="M166.67 64.414C166.67 64.414 164.906 70.1812 168.151 69.9042C171.395 69.6273 169.403 63.6073 169.403 63.6073L166.67 64.414Z" fill="#263238"/>
<path d="M158.139 61.404C158.139 61.404 156.02 59.8448 156.562 58.7131C157.104 57.5813 157.947 60.3144 162.167 59.8147C166.387 59.3151 171.395 58.9358 172.323 61.7351C173.25 64.5344 163.895 62.4033 163.895 62.4033L158.127 63.6434L158.139 61.404Z" fill="#263238"/>
<path d="M157.405 130.309L153.329 129.159C153.329 129.159 148.513 128.864 148.11 130.7C147.707 132.536 147.508 135.703 149.422 135.956C151.337 136.209 157.297 135.835 157.297 135.835L157.405 130.309Z" fill="#B55B52"/>
<path d="M171.311 102.34L177.879 96.4765C177.879 96.4765 186.012 114.537 186.47 121.478C186.927 128.419 181.563 131.537 177.018 132.705C172.473 133.873 157.411 136.985 157.411 136.985L156.598 128.605C156.598 128.605 172.642 125.866 178.818 123.031C178.794 123.049 173.238 106.885 171.311 102.34Z" fill="#6C63FF"/>
<path opacity="0.1" d="M157.411 137.003L172.593 133.758L172.636 136.046L157.411 137.003Z" fill="black"/>
<path d="M159.229 95.4712L160.957 100.034C163.701 98.0134 166.227 95.7113 168.494 93.1655L165.989 88.9937C165.989 88.9937 163.696 93.5568 159.229 95.4712Z" fill="#FAFAFA"/>
<path d="M157.965 90.4806C158.015 92.2168 158.446 93.9206 159.229 95.4712L157.345 99.6852C156.391 98.7191 155.664 97.553 155.216 96.2713C154.768 94.9896 154.611 93.6244 154.756 92.2746L157.965 90.4806Z" fill="#FAFAFA"/>
</svg>
